<?xml version="1.0" standalone="no"?>
<!DOCTYPE svg PUBLIC "-//W3C//DTD SVG 1.1//EN" "http://www.w3.org/Graphics/SVG/1.1/DTD/svg11.dtd" >
<svg>
<metadata>
Created by FontForge 20090622 at Tue Jul 14 16:05:47 2020
 By deploy user
&#194;&#169; 1989, 1990, 1998, 2002 Adobe Systems Incorporated. All rights reserved.
</metadata>
<defs>
<font id="EurostileLTStd-BoldEx2" horiz-adv-x="815" >
  <font-face 
    font-family="Eurostile LT Std Ext Two"
    font-weight="700"
    font-stretch="expanded"
    units-per-em="1000"
    panose-1="2 11 9 7 3 5 2 6 2 4"
    ascent="750"
    descent="-250"
    x-height="510"
    cap-height="724"
    bbox="-234 -305 1385 1064"
    underline-thickness="50"
    underline-position="-50"
    unicode-range="U+0020-U+FB02"
  />
<missing-glyph horiz-adv-x="500" 
d="M0 0v700h500v-700h-500zM250 395l170 255h-340zM280 350l170 -255v510zM80 50h340l-170 255zM50 605v-510l170 255z" />
    <glyph glyph-name="f_i" unicode="fi" 
d="M557 0v510h192v-510h-192zM557 574v150h192v-150h-192zM104 0v378h-88v132h88v39q0 102 55 142.5t180 40.5q30 0 74 -2.5t56 -2.5v-130q-9 0 -25.5 1t-29.5 1.5t-23 0.5q-57 0 -76 -13.5t-19 -52.5v-24h182v-132h-182v-378h-192z" />
    <glyph glyph-name="f_l" unicode="fl" 
d="M557 0v724h192v-724h-192zM104 0v378h-88v132h88v39q0 102 55 142.5t180 40.5q30 0 74 -2.5t56 -2.5v-130q-9 0 -25.5 1t-29.5 1.5t-23 0.5q-57 0 -76 -13.5t-19 -52.5v-24h182v-132h-182v-378h-192z" />
    <glyph glyph-name=".notdef" horiz-adv-x="500" 
d="M0 0v700h500v-700h-500zM250 395l170 255h-340zM280 350l170 -255v510zM80 50h340l-170 255zM50 605v-510l170 255z" />
    <glyph glyph-name=".null" horiz-adv-x="0" 
 />
    <glyph glyph-name="nonmarkingreturn" horiz-adv-x="333" 
 />
    <glyph glyph-name="space" unicode=" " horiz-adv-x="494" 
 />
    <glyph glyph-name="exclam" unicode="!" horiz-adv-x="494" 
d="M142 0v204h210v-204h-210zM154 289l-9 263v172h204v-172l-9 -263h-186z" />
    <glyph glyph-name="quotedbl" unicode="&#x22;" horiz-adv-x="667" 
d="M381 324v400h152v-400h-152zM134 324v400h152v-400h-152z" />
    <glyph glyph-name="numbersign" unicode="#" horiz-adv-x="988" 
d="M467 410l-13 -96h67l13 96h-67zM236 194v120h94l13 96h-78v120h94l26 194h124l-26 -194h67l26 194h124l-26 -194h78v-120h-94l-13 -96h78v-120h-94l-26 -194h-124l26 194h-67l-26 -194h-124l26 194h-78z" />
    <glyph glyph-name="dollar" unicode="$" horiz-adv-x="988" 
d="M411 457h31v113h-109q-40 0 -54 -11.5t-14 -41.5q0 -21 7 -32t40.5 -19.5t98.5 -8.5zM550 280v-120h95q43 0 61 13t18 52q0 35 -31.5 45t-142.5 10zM60 197v30h198q0 -37 9.5 -52t39.5 -15h135v123q-97 0 -164.5 10.5t-109 28t-64 49.5t-30 68t-7.5 89q0 106 50 155
t158 49h167v62h108v-62h145q90 0 150 -49.5t60 -161.5h-192q0 29 -16.5 39t-69.5 10h-77v-116q214 0 296 -52t82 -178q0 -131 -71 -181.5t-229 -50.5h-78v-66h-108v66h-159q-223 0 -223 205z" />
    <glyph glyph-name="percent" unicode="%" horiz-adv-x="1333" 
d="M161 541v-94q0 -42 15 -58.5t57 -16.5h132q42 0 57 16.5t15 58.5v94q0 44 -13.5 57.5t-52.5 13.5h-144q-39 0 -52.5 -13.5t-13.5 -57.5zM497 -8l244 740h91l-244 -740h-91zM896 281v-94q0 -42 15 -58.5t57 -16.5h132q42 0 57 16.5t15 58.5v94q0 44 -13.5 57.5t-52.5 13.5
h-144q-39 0 -52.5 -13.5t-13.5 -57.5zM23 401v172q0 159 158 159h226q88 0 128 -36t40 -119v-131q0 -116 -45.5 -155t-179.5 -39h-158q-93 0 -131 39t-38 110zM758 141v172q0 159 158 159h226q88 0 128 -36t40 -119v-131q0 -116 -45.5 -155t-179.5 -39h-158q-93 0 -131 39
t-38 110z" />
    <glyph glyph-name="ampersand" unicode="&#x26;" horiz-adv-x="1061" 
d="M375 148h318q5 0 5 6l-341 174q-10 5 -33 5q-29 0 -44 -17.5t-15 -73.5q0 -55 25.5 -74.5t84.5 -19.5zM67 197v56q2 88 34 122t123 36v2q-50 32 -62 58.5t-12 94.5q0 44 6 71t20.5 47.5t45.5 29.5t74.5 13.5t114.5 4.5h172q66 0 109.5 -3t78.5 -12t54 -22t31.5 -37.5
t16.5 -54t4 -74.5v-40h-192v35q0 31 -22.5 44.5t-76.5 13.5h-153q-47 0 -63 -8.5t-16 -35.5q0 -22 8.5 -33t39.5 -27l361 -186v96h180v-102q0 -37 -8 -83l129 -67l-61 -136l-127 66q-30 -46 -90.5 -60t-150.5 -14h-299q-133 0 -201 45t-68 160z" />
    <glyph glyph-name="quotesingle" unicode="'" horiz-adv-x="346" 
d="M97 324v400h152v-400h-152z" />
    <glyph glyph-name="parenleft" unicode="(" horiz-adv-x="494" 
d="M91 209v306q0 118 54.5 167.5t160.5 49.5h128v-162h-72q-41 0 -60 -16.5t-19 -58.5v-266q0 -42 19 -58.5t60 -16.5h72v-162h-128q-106 0 -160.5 49.5t-54.5 167.5z" />
    <glyph glyph-name="parenright" unicode=")" horiz-adv-x="494" 
d="M60 -8v162h72q41 0 60 16.5t19 58.5v266q0 42 -19 58.5t-60 16.5h-72v162h128q106 0 160.5 -49.5t54.5 -167.5v-306q0 -118 -54.5 -167.5t-160.5 -49.5h-128z" />
    <glyph glyph-name="asterisk" unicode="*" horiz-adv-x="594" 
d="M231 322l-80 46l75 116l69 -39zM443 368l-80 -46l-64 123l69 39zM363 732l80 -46l-75 -116l-69 39zM510 572v-90l-138 6v78zM84 482v90l138 -6v-78zM151 686l80 46l64 -123l-69 -39z" />
    <glyph glyph-name="plus" unicode="+" horiz-adv-x="600" 
d="M231 0v184h-184v138h184v184h138v-184h184v-138h-184v-184h-138z" />
    <glyph glyph-name="comma" unicode="," horiz-adv-x="494" 
d="M111 -178v114q54 0 70.5 10.5t16.5 36.5v17h-56v204h210v-181q0 -47 -3 -77t-13.5 -54.5t-25.5 -37t-44.5 -20.5t-64.5 -10.5t-90 -1.5z" />
    <glyph glyph-name="hyphen" unicode="-" horiz-adv-x="444" 
d="M82 163v180h280v-180h-280z" />
    <glyph glyph-name="period" unicode="." horiz-adv-x="494" 
d="M142 0v204h210v-204h-210z" />
    <glyph glyph-name="slash" unicode="/" horiz-adv-x="370" 
d="M-57 -8l332 740h152l-332 -740h-152z" />
    <glyph glyph-name="zero" unicode="0" horiz-adv-x="988" 
d="M263 440v-156q0 -60 26.5 -86t101.5 -26h206q75 0 101.5 26t26.5 86v156q0 60 -26.5 86t-101.5 26h-206q-75 0 -101.5 -26t-26.5 -86zM47 246v202q0 163 69 223.5t248 60.5h260q179 0 248 -60.5t69 -223.5v-202q0 -138 -63 -196t-196 -58h-376q-133 0 -196 58t-63 196z
" />
    <glyph glyph-name="one" unicode="1" horiz-adv-x="988" 
d="M538 0v550l-267 -171l-101 145l307 200h265v-724h-204z" />
    <glyph glyph-name="two" unicode="2" horiz-adv-x="988" 
d="M70 0v246q0 144 201 158l254 16q56 3 81 6t48.5 7t30 14t10 21.5t3.5 35.5q0 33 -7.5 46t-38 19.5t-102.5 6.5h-147q-73 0 -98 -17t-25 -72v-31h-210v85q0 106 65.5 148.5t218.5 42.5h292q152 0 207 -48t55 -165q0 -57 -3.5 -93t-16.5 -66.5t-31.5 -47t-54.5 -29
t-79.5 -18t-112.5 -9.5l-229 -12q-68 -4 -87.5 -21t-19.5 -67h644v-156h-848z" />
    <glyph glyph-name="three" unicode="3" horiz-adv-x="988" 
d="M65 180v77h210v-32q0 -46 19 -61.5t77 -15.5h265q49 0 63 14.5t14 53.5q0 38 -15.5 54t-64.5 16h-228v150h207q52 0 68.5 14.5t16.5 55.5q0 40 -24 55t-77 15h-220q-54 0 -74 -14.5t-20 -54.5v-31h-210v40q0 59 13 97.5t36.5 62.5t72 36t102 16t143.5 4h149
q100 0 159.5 -8.5t96.5 -32t50 -60.5t13 -99t-10.5 -92t-33 -44.5t-76.5 -30.5v-3q85 -15 110.5 -49t25.5 -123q0 -110 -52 -154t-199 -44h-369q-52 0 -92 8.5t-74.5 28.5t-53 58t-18.5 93z" />
    <glyph glyph-name="four" unicode="4" horiz-adv-x="988" 
d="M54 145v265l517 314h256v-417h107v-162h-107v-145h-210v145h-563zM617 550l-389 -241v-2h389v243z" />
    <glyph glyph-name="five" unicode="5" horiz-adv-x="988" 
d="M94 289v435h789v-156h-597v-126q23 23 52.5 34t85.5 11h251q122 0 182.5 -47.5t60.5 -162.5v-46q0 -47 -7.5 -82.5t-20 -61t-36 -43t-48.5 -28t-65 -16t-77.5 -7t-93.5 -1.5h-174q-72 0 -119 3.5t-90 15t-66.5 32.5t-37 55.5t-13.5 85.5v42h204q0 -47 22 -62.5t97 -15.5
h208q72 0 92.5 20.5t20.5 77.5q0 59 -24.5 75t-104.5 16h-234q-55 0 -65 -48h-192z" />
    <glyph glyph-name="six" unicode="6" horiz-adv-x="988" 
d="M396 148h202q63 0 86 17t23 64q0 46 -23 62.5t-90 16.5h-194q-67 0 -90 -16.5t-23 -62.5q0 -47 23 -64t86 -17zM77 246v202q0 163 69 223.5t248 60.5h231q147 0 207 -44t60 -121v-57h-192q0 36 -25.5 51t-84.5 15h-195q-108 0 -108 -87v-86q29 29 66 42t99 13h207
q79 0 129.5 -12.5t77 -40t36 -62t9.5 -87.5v-63q0 -53 -11 -89.5t-30 -58.5t-53 -33.5t-71 -15.5t-94 -4h-316q-133 0 -196 58t-63 196z" />
    <glyph glyph-name="seven" unicode="7" horiz-adv-x="988" 
d="M79 544v180h830v-162l-461 -562h-258l449 544h-560z" />
    <glyph glyph-name="eight" unicode="8" horiz-adv-x="988" 
d="M67 167v63q0 60 29 92t100 42v2q-125 21 -125 152v41q0 42 5.5 69.5t24 47.5t40 30.5t67.5 16.5t92 7.5t126 1.5h220q145 0 207 -36.5t62 -135.5v-47q0 -65 -25 -99.5t-96 -43.5v-2q63 -18 95 -51.5t32 -102.5v-58q0 -88 -53.5 -126t-158.5 -38h-418q-116 0 -170 43.5
t-54 131.5zM363 148h262q53 0 69.5 16t16.5 57q0 44 -17 58t-81 14h-238q-64 0 -81 -14t-17 -58q0 -41 16.5 -57t69.5 -16zM366 443h254q46 0 65.5 17t19.5 50q0 66 -68 66h-288q-68 0 -68 -66q0 -33 19.5 -50t65.5 -17z" />
    <glyph glyph-name="nine" unicode="9" horiz-adv-x="988" 
d="M74 157v49h204q0 -34 19 -46t68 -12h231q108 0 108 87v86q-29 -29 -66 -42t-99 -13h-207q-79 0 -129.5 12.5t-77 40t-36 62t-9.5 87.5v63q0 53 11 89.5t30 58.5t53 33.5t71 15.5t94 4h316q133 0 196 -58t63 -196v-202q0 -163 -69 -223.5t-248 -60.5h-269
q-130 0 -192 37.5t-62 127.5zM397 416h193q68 0 91 16.5t23 62.5q0 47 -23 64t-86 17h-202q-63 0 -86 -17t-23 -64q0 -46 23 -62.5t90 -16.5z" />
    <glyph glyph-name="colon" unicode=":" horiz-adv-x="494" 
d="M142 306v204h210v-204h-210zM142 0v204h210v-204h-210z" />
    <glyph glyph-name="semicolon" unicode=";" horiz-adv-x="494" 
d="M111 -178v114q54 0 70.5 10.5t16.5 36.5v17h-56v204h210v-181q0 -47 -3 -77t-13.5 -54.5t-25.5 -37t-44.5 -20.5t-64.5 -10.5t-90 -1.5zM142 306v204h210v-204h-210z" />
    <glyph glyph-name="less" unicode="&#x3c;" horiz-adv-x="600" 
d="M47 190v126l506 198v-131l-337 -130l337 -130v-131z" />
    <glyph glyph-name="equal" unicode="=" horiz-adv-x="600" 
d="M47 307v138h506v-138h-506zM47 61v138h506v-138h-506z" />
    <glyph glyph-name="greater" unicode="&#x3e;" horiz-adv-x="600" 
d="M47 -8v131l337 130l-337 130v131l506 -198v-126z" />
    <glyph glyph-name="question" unicode="?" 
d="M39 469v72q0 105 61 148t221 43h170q51 0 88.5 -4t73 -15t58 -30.5t36 -51.5t13.5 -77v-53q0 -56 -10 -90.5t-35.5 -53.5t-53 -26.5t-79.5 -14.5q-80 -11 -102.5 -24.5t-22.5 -42.5h-192v40q0 77 32.5 107.5t130.5 46.5q95 15 120.5 27t25.5 48q0 41 -20.5 55.5
t-79.5 14.5h-154q-95 0 -95 -89v-30h-186zM259 0v192h210v-192h-210z" />
    <glyph glyph-name="at" unicode="@" horiz-adv-x="800" 
d="M317 337q0 -28 18.5 -49.5t47.5 -21.5q44 0 70 27.5t26 60.5q0 35 -17.5 56.5t-49.5 21.5q-40 0 -67.5 -28.5t-27.5 -66.5zM515 498l10 42h94l-45 -236q-5 -28 -5 -34q0 -22 15 -22q30 0 57 40.5t27 116.5q0 111 -69.5 168t-180.5 57q-121 0 -200.5 -77t-79.5 -192
q0 -119 80 -193t194 -74q121 0 202 58h113q-106 -160 -315 -160q-164 0 -273 104t-109 265q0 173 110 272t279 99q160 0 255.5 -83.5t95.5 -211.5q0 -65 -21.5 -119t-53 -86.5t-68.5 -55t-66.5 -31t-49.5 -8.5q-50 0 -56 51h-2q-32 -51 -100 -51q-76 0 -122 54.5t-46 131.5
q0 99 59 167t150 68q79 0 121 -60z" />
    <glyph glyph-name="A" unicode="A" horiz-adv-x="1087" 
d="M4 0l392 724h289l398 -724h-247l-69 128h-450l-65 -128h-248zM540 556l-140 -272h284z" />
    <glyph glyph-name="B" unicode="B" horiz-adv-x="1062" 
d="M75 0v724h639q137 0 200 -43t63 -147q0 -85 -26 -117.5t-81 -48.5v-3q72 -9 102.5 -49.5t30.5 -123.5q0 -111 -57 -151.5t-164 -40.5h-707zM297 287v-113h398q80 0 80 53q0 34 -20 47t-60 13h-398zM297 550v-113h393q65 0 65 56q0 57 -65 57h-393z" />
    <glyph glyph-name="C" unicode="C" horiz-adv-x="1062" 
d="M59 254v216q0 78 21 130t64.5 80.5t98.5 40t135 11.5h261q96 0 159 -9.5t103 -27t60 -52.5t27 -76t6 -108h-222v20q0 37 -25.5 52t-78.5 15h-242q-82 0 -110.5 -35.5t-28.5 -109.5v-78q0 -82 25.5 -113.5t101.5 -31.5h237q79 0 104.5 17.5t25.5 82.5h222v-68
q0 -50 -11 -86.5t-38.5 -68t-82 -47.5t-135.5 -16h-358q-80 0 -135 11.5t-98.5 40t-64.5 80.5t-21 130z" />
    <glyph glyph-name="D" unicode="D" horiz-adv-x="1112" 
d="M83 0v724h670q165 0 232.5 -58t67.5 -194v-220q0 -136 -67.5 -194t-232.5 -58h-670zM305 544v-358h394q73 0 102.5 27.5t29.5 102.5v98q0 75 -29.5 102.5t-102.5 27.5h-394z" />
    <glyph glyph-name="E" unicode="E" horiz-adv-x="939" 
d="M75 0v724h792v-168h-570v-116h540v-150h-540v-116h583v-174h-805z" />
    <glyph glyph-name="F" unicode="F" horiz-adv-x="890" 
d="M75 0v724h756v-174h-534v-135h509v-168h-509v-247h-222z" />
    <glyph glyph-name="G" unicode="G" horiz-adv-x="1062" 
d="M59 254v216q0 78 21 130t64.5 80.5t98.5 40t135 11.5h334q92 0 151 -15.5t87.5 -48.5t38.5 -71t10 -97v-23h-218q0 50 -26 65.5t-86 15.5h-241q-85 0 -113 -29.5t-28 -121.5v-90q0 -92 28 -121.5t113 -29.5h237q54 0 85 16t31 63v21h-276v150h498v-206q0 -39 -4.5 -69
t-16.5 -52.5t-25.5 -38.5t-39 -27t-48.5 -17t-63 -9t-73.5 -4t-87.5 -1h-267q-80 0 -135 11.5t-98.5 40t-64.5 80.5t-21 130z" />
    <glyph glyph-name="H" unicode="H" horiz-adv-x="1062" 
d="M75 0v724h222v-258h468v258h222v-724h-222v274h-468v-274h-222z" />
    <glyph glyph-name="I" unicode="I" horiz-adv-x="396" 
d="M87 0v724h222v-724h-222z" />
    <glyph glyph-name="J" unicode="J" horiz-adv-x="839" 
d="M25 225v87h216v-64q0 -41 22.5 -58.5t74.5 -17.5h88q61 0 88.5 14.5t27.5 61.5v476h222v-494q0 -59 -13.5 -101t-37.5 -68.5t-63.5 -42t-85.5 -21t-110 -5.5h-145q-156 0 -220 53t-64 180z" />
    <glyph glyph-name="K" unicode="K" horiz-adv-x="1037" 
d="M75 0v724h222v-266h104l280 266h302l-392 -354l438 -370h-314l-320 278h-98v-278h-222z" />
    <glyph glyph-name="L" unicode="L" 
d="M75 0v724h222v-538h499v-186h-721z" />
    <glyph glyph-name="M" unicode="M" horiz-adv-x="1334" 
d="M75 0v724h341l251 -466l251 466h341v-724h-216v520h-2l-291 -520h-166l-291 520h-2v-520h-216z" />
    <glyph glyph-name="N" unicode="N" horiz-adv-x="1135" 
d="M75 0v724h344l417 -526h2v526h222v-724h-344l-417 526h-2v-526h-222z" />
    <glyph glyph-name="O" unicode="O" horiz-adv-x="1112" 
d="M59 254v216q0 78 21 130t64.5 80.5t98.5 40t135 11.5h356q80 0 135 -11.5t98.5 -40t64.5 -80.5t21 -130v-216q0 -78 -21 -130t-64.5 -80.5t-98.5 -40t-135 -11.5h-356q-80 0 -135 11.5t-98.5 40t-64.5 80.5t-21 130zM287 401v-78q0 -82 25.5 -113.5t101.5 -31.5h284
q76 0 101.5 31.5t25.5 113.5v78q0 74 -28.5 109.5t-110.5 35.5h-260q-82 0 -110.5 -35.5t-28.5 -109.5z" />
    <glyph glyph-name="P" unicode="P" horiz-adv-x="987" 
d="M75 0v724h605q77 0 129.5 -18t81 -53t40 -77.5t11.5 -99.5v-62q0 -44 -10 -82.5t-32.5 -73.5t-64 -55.5t-97.5 -20.5h-441v-182h-222zM297 544v-182h345q72 0 72 77v28q0 77 -91 77h-326z" />
    <glyph glyph-name="Q" unicode="Q" horiz-adv-x="1112" 
d="M287 401v-78q0 -82 25.5 -113.5t101.5 -31.5h284q6 0 17.5 0.5t16.5 0.5v2l-209 127l92 148l210 -129v74q0 74 -28.5 109.5t-110.5 35.5h-260q-82 0 -110.5 -35.5t-28.5 -109.5zM59 254v216q0 78 21 130t64.5 80.5t98.5 40t135 11.5h356q80 0 135 -11.5t98.5 -40
t64.5 -80.5t21 -130v-216q0 -38 -5 -63l88 -54l-92 -145l-82 47q-73 -47 -228 -47h-356q-80 0 -135 11.5t-98.5 40t-64.5 80.5t-21 130z" />
    <glyph glyph-name="R" unicode="R" horiz-adv-x="1037" 
d="M297 544v-176h367q44 0 63 18t19 58v24q0 46 -23 61t-79 15h-347zM75 0v724h670q121 0 169 -54.5t48 -160.5v-46q0 -78 -25.5 -119.5t-98.5 -58.5v-2q58 -11 89.5 -44.5t31.5 -115.5v-123h-222v87q0 57 -19.5 79t-71.5 22h-349v-188h-222z" />
    <glyph glyph-name="S" unicode="S" horiz-adv-x="1037" 
d="M62 187v50h222q1 -54 21.5 -68.5t74.5 -14.5h272q21 0 35 2t29.5 7.5t23 18.5t7.5 33q0 37 -22 48q-33 17 -198 19h-92q-86 0 -143.5 3.5t-101 14t-67 24.5t-38 41t-18.5 57t-4 78q0 33 1.5 54.5t7.5 48.5t17.5 43.5t33 35t52 28t76 16t104.5 6.5h310q75 0 127.5 -10.5
t82 -27.5t45.5 -46.5t20.5 -58t4.5 -71.5v-23h-222q0 44 -18 59.5t-90 15.5h-246q-84 0 -84 -56q0 -38 23 -49q30 -15 181 -15h61q95 0 152.5 -2t110.5 -10.5t80 -23t48 -41.5t27.5 -63.5t6.5 -90.5q0 -76 -14 -118.5t-57 -68t-108 -33t-182 -7.5h-269q-157 0 -220 40.5
t-63 154.5z" />
    <glyph glyph-name="T" unicode="T" horiz-adv-x="890" 
d="M22 544v180h846v-180h-312v-544h-222v544h-312z" />
    <glyph glyph-name="U" unicode="U" horiz-adv-x="1062" 
d="M75 258v466h222v-418q0 -69 28 -98.5t96 -29.5h220q68 0 96 29.5t28 98.5v418h222v-466q0 -136 -72.5 -201t-224.5 -65h-318q-152 0 -224.5 65t-72.5 201z" />
    <glyph glyph-name="V" unicode="V" horiz-adv-x="1062" 
d="M394 0l-389 724h243l283 -538l283 538h243l-389 -724h-274z" />
    <glyph glyph-name="W" unicode="W" horiz-adv-x="1334" 
d="M242 0l-235 724h217l154 -532h2l184 532h206l184 -532h2l154 532h217l-235 -724h-255l-169 478h-2l-169 -478h-255z" />
    <glyph glyph-name="X" unicode="X" horiz-adv-x="1088" 
d="M7 0l355 363l-330 361h287l225 -253l225 253h287l-330 -361l355 -363h-298l-239 263l-239 -263h-298z" />
    <glyph glyph-name="Y" unicode="Y" horiz-adv-x="1038" 
d="M408 0v252l-401 472h268l244 -296l244 296h268l-401 -472v-252h-222z" />
    <glyph glyph-name="Z" unicode="Z" horiz-adv-x="939" 
d="M40 0v174l519 374v2h-505v174h833v-174l-518 -374v-2h530v-174h-859z" />
    <glyph glyph-name="bracketleft" unicode="[" horiz-adv-x="494" 
d="M91 0v724h343v-168h-151v-388h151v-168h-343z" />
    <glyph glyph-name="backslash" unicode="\" horiz-adv-x="370" 
d="M275 -8l-332 740h152l332 -740h-152z" />
    <glyph glyph-name="bracketright" unicode="]" horiz-adv-x="494" 
d="M60 0v168h151v388h-151v168h343v-724h-343z" />
    <glyph glyph-name="asciicircum" unicode="^" horiz-adv-x="600" 
d="M65 359l174 365h122l174 -365h-133l-102 227l-102 -227h-133z" />
    <glyph glyph-name="underscore" unicode="_" horiz-adv-x="500" 
d="M0 -125v50h500v-50h-500z" />
    <glyph glyph-name="grave" unicode="`" horiz-adv-x="346" 
d="M138 595l-212 198h243l128 -198h-159z" />
    <glyph glyph-name="a" unicode="a" horiz-adv-x="765" 
d="M34 137v42q0 41 12.5 68.5t32 43t59 23.5t76.5 10t102 2q89 0 131.5 -7.5t68.5 -33.5v45q0 39 -17.5 53.5t-72.5 14.5h-113q-44 0 -58.5 -7.5t-15.5 -33.5h-186q0 99 50.5 130t179.5 31h223q99 0 150.5 -46.5t51.5 -136.5v-335h-182v58q-41 -42 -70 -54t-99 -12h-131
q-96 -1 -144 30t-48 115zM321 112h55q63 0 95.5 7t40.5 17t8 30q0 31 -21 41.5t-96 10.5h-85q-58 0 -78 -13.5t-20 -46.5q0 -25 22.5 -35.5t78.5 -10.5z" />
    <glyph glyph-name="b" unicode="b" 
d="M246 280v-50q0 -55 27.5 -74.5t88.5 -19.5h113q64 0 82.5 20.5t18.5 68.5v60q0 48 -18.5 68.5t-82.5 20.5h-113q-61 0 -88.5 -19.5t-27.5 -74.5zM66 0v724h192v-308h2q15 102 172 102h57q88 0 144.5 -14.5t83.5 -46t36 -66.5t9 -90v-92q0 -55 -9 -90t-36 -66.5t-83.5 -46
t-144.5 -14.5h-56q-83 0 -125.5 26t-59.5 76h-2v-94h-180z" />
    <glyph glyph-name="c" unicode="c" horiz-adv-x="765" 
d="M42 234v49q0 70 16.5 117.5t49.5 72.5t73.5 35t96.5 10h216q229 0 229 -169v-46h-186q0 39 -24.5 55t-86.5 16h-74q-61 0 -89.5 -18.5t-28.5 -59.5v-68q0 -86 102 -86h98q103 0 103 59v12h186v-45q0 -49 -19 -85t-52 -55t-71 -27.5t-82 -8.5h-196q-44 0 -76.5 4
t-69.5 18.5t-60.5 40t-39 71t-15.5 108.5z" />
    <glyph glyph-name="d" unicode="d" 
d="M239 285v-60q0 -48 18.5 -68.5t82.5 -20.5h113q61 0 88.5 19.5t27.5 74.5v50q0 55 -27.5 74.5t-88.5 19.5h-113q-64 0 -82.5 -20.5t-18.5 -68.5zM53 209v92q0 55 9 90t36 66.5t83.5 46t144.5 14.5h57q157 0 172 -102h2v308h192v-724h-180v94h-2q-17 -50 -59.5 -76
t-125.5 -26h-56q-88 0 -144.5 14.5t-83.5 46t-36 66.5t-9 90z" />
    <glyph glyph-name="e" unicode="e" horiz-adv-x="742" 
d="M42 234v49q0 70 16.5 117.5t49.5 72.5t73.5 35t96.5 10h134q159 0 223.5 -45.5t64.5 -174.5v-86h-466v-31q0 -39 27.5 -54t90.5 -15h59q49 0 74 9t30 19.5t5 29.5h180v-22q0 -46 -19.5 -78t-56 -48.5t-79 -23t-98.5 -6.5h-144q-44 0 -76.5 4t-69.5 18.5t-60.5 40t-39 71
t-15.5 108.5zM234 326h280q0 45 -27.5 58.5t-112.5 13.5q-65 0 -93 -6t-37.5 -19.5t-9.5 -46.5z" />
    <glyph glyph-name="f" unicode="f" horiz-adv-x="494" 
d="M104 0v378h-88v132h88v39q0 102 55 142.5t180 40.5q30 0 74 -2.5t56 -2.5v-130q-9 0 -25.5 1t-29.5 1.5t-23 0.5q-57 0 -76 -13.5t-19 -52.5v-24h182v-132h-182v-378h-192z" />
    <glyph glyph-name="g" unicode="g" 
d="M53 248v70q0 113 56.5 156.5t177.5 43.5h112q72 0 102 -14t66 -64h2v70h180v-478q0 -36 -5 -63t-22.5 -56t-46.5 -48t-80 -31t-121 -12h-212q-104 0 -153 34t-49 125h198q0 -39 47 -39h139q65 0 95 25t30 88v34q-30 -30 -64.5 -41.5t-107.5 -11.5h-101q-134 0 -188.5 52
t-54.5 160zM356 174h94q70 0 93.5 21.5t23.5 80.5q0 60 -23.5 82t-93.5 22h-94q-70 0 -93.5 -22t-23.5 -82q0 -59 23.5 -80.5t93.5 -21.5z" />
    <glyph glyph-name="h" unicode="h" 
d="M66 0v724h192v-296h2q24 51 73 70.5t131 19.5q33 0 54 -1t54 -5.5t54.5 -13t47 -25t40.5 -39.5t25 -59t10 -82v-293h-192v293q0 75 -124 75h-44q-62 0 -96.5 -28.5t-34.5 -82.5v-257h-192z" />
    <glyph glyph-name="i" unicode="i" horiz-adv-x="346" 
d="M269 510v-510h-192v510h192zM269 724v-150h-192v150h192z" />
    <glyph glyph-name="j" unicode="j" horiz-adv-x="346" 
d="M269 510v-543q0 -78 -48 -111.5t-139 -33.5q-16 0 -44 2.5t-32 2.5v129q18 -2 20 -2q51 0 51 50v506h192zM269 724v-150h-192v150h192z" />
    <glyph glyph-name="k" unicode="k" horiz-adv-x="765" 
d="M66 0v724h192v-382h36l169 168h252l-256 -239l287 -271h-245l-205 204h-38v-204h-192z" />
    <glyph glyph-name="l" unicode="l" horiz-adv-x="346" 
d="M77 0v724h192v-724h-192z" />
    <glyph glyph-name="m" unicode="m" horiz-adv-x="1210" 
d="M57 0v510h183v-100h2q7 53 52 80.5t118 27.5h73q135 0 189 -119q24 69 62 94t120 25h59q127 0 182.5 -58.5t55.5 -172.5v-287h-192v274q0 55 -24.5 74.5t-105.5 19.5q-71 0 -100.5 -19t-29.5 -68v-281h-192v289q0 48 -26.5 63.5t-112.5 15.5q-65 0 -93 -21t-28 -78v-269
h-192z" />
    <glyph glyph-name="n" unicode="n" 
d="M66 0v510h192v-82h2q24 51 73 70.5t131 19.5q33 0 54 -1t54 -5.5t54.5 -13t47 -25t40.5 -39.5t25 -59t10 -82v-293h-192v293q0 75 -124 75h-44q-62 0 -96.5 -28.5t-34.5 -82.5v-257h-192z" />
    <glyph glyph-name="o" unicode="o" 
d="M53 194v122q0 202 211 202h287q211 0 211 -202v-122q0 -202 -211 -202h-287q-211 0 -211 202zM245 279v-48q0 -53 31 -74t100 -21h46q92 0 120 16t28 68v70q0 52 -28 68t-120 16h-46q-69 0 -100 -21t-31 -74z" />
    <glyph glyph-name="p" unicode="p" 
d="M258 280v-50q0 -55 27.5 -74.5t88.5 -19.5h101q64 0 82.5 20.5t18.5 68.5v60q0 48 -18.5 68.5t-82.5 20.5h-101q-61 0 -88.5 -19.5t-27.5 -74.5zM66 -178v688h186v-76h2q45 84 180 84h55q88 0 144.5 -14.5t83.5 -46t36 -66.5t9 -90v-92q0 -55 -9 -90t-36 -66.5t-83.5 -46
t-144.5 -14.5h-39q-84 0 -121 18t-69 78h-2v-266h-192z" />
    <glyph glyph-name="q" unicode="q" 
d="M239 285v-60q0 -48 18.5 -68.5t82.5 -20.5h101q61 0 88.5 19.5t27.5 74.5v50q0 55 -27.5 74.5t-88.5 19.5h-101q-64 0 -82.5 -20.5t-18.5 -68.5zM53 209v92q0 55 9 90t36 66.5t83.5 46t144.5 14.5h55q135 0 180 -84h2v76h186v-688h-192v266h-2q-32 -60 -69 -78t-121 -18
h-39q-88 0 -144.5 14.5t-83.5 46t-36 66.5t-9 90z" />
    <glyph glyph-name="r" unicode="r" horiz-adv-x="667" 
d="M66 0v510h180v-97h2q29 105 187 105q104 0 149.5 -47.5t45.5 -153.5q0 -9 -2 -45h-166q0 52 -18.5 74t-73.5 22q-112 0 -112 -86v-282h-192z" />
    <glyph glyph-name="s" unicode="s" horiz-adv-x="791" 
d="M47 159h198q0 -16 6.5 -25t33.5 -15.5t79 -6.5h68q69 0 91.5 7.5t22.5 30.5t-17 32.5t-66 9.5h-180q-135 1 -183.5 38t-48.5 142q0 46 17 76t51.5 45t72.5 20t93 5h134q127 0 189.5 -14.5t84.5 -45.5t23 -95h-192q-8 23 -32.5 29t-110.5 6t-109 -6t-23 -32
q0 -17 21.5 -23.5t93.5 -6.5h133q67 0 114 -9.5t72.5 -23t39.5 -37.5t17.5 -45t3.5 -53q0 -102 -54.5 -136t-218.5 -34h-182q-134 0 -188 36.5t-54 130.5z" />
    <glyph glyph-name="t" unicode="t" horiz-adv-x="667" 
d="M112 170v202h-96v138h96v120h192v-120h298v-138h-298v-196q0 -27 18 -36.5t56 -9.5q46 0 62.5 13t16.5 48v34h168v-62q0 -77 -53.5 -124t-163.5 -47h-76q-220 0 -220 178z" />
    <glyph glyph-name="u" unicode="u" 
d="M749 510v-510h-192v82h-2q-24 -51 -73 -70.5t-131 -19.5q-33 0 -54 1t-54 5.5t-54.5 13t-47 25t-40.5 39.5t-25 59t-10 82v293h192v-293q0 -75 124 -75h44q62 0 96.5 28.5t34.5 82.5v257h192z" />
    <glyph glyph-name="v" unicode="v" horiz-adv-x="742" 
d="M251 0l-245 510h209l156 -360l156 360h209l-245 -510h-240z" />
    <glyph glyph-name="w" unicode="w" horiz-adv-x="1112" 
d="M202 0l-196 510h210l116 -372h2l134 372h176l134 -372h2l116 372h210l-196 -510h-256l-97 276h-2l-97 -276h-256z" />
    <glyph glyph-name="x" unicode="x" horiz-adv-x="742" 
d="M6 0l218 268l-200 242h249l98 -138l98 138h249l-200 -242l218 -268h-243l-122 172l-122 -172h-243z" />
    <glyph glyph-name="y" unicode="y" horiz-adv-x="716" 
d="M164 -174v122h16q62 0 93.5 16t31.5 58h-68l-234 488h208l147 -355l147 355h208l-286 -604q-22 -45 -66 -64.5t-119 -19.5q-2 0 -78 4z" />
    <glyph glyph-name="z" unicode="z" horiz-adv-x="642" 
d="M26 0v130l310 246v2h-294v132h560v-150l-293 -226v-2h307v-132h-590z" />
    <glyph glyph-name="braceleft" unicode="{" horiz-adv-x="494" 
d="M22 319v92q69 0 69 47v159q0 51 43 79t90 28h152v-108h-35q-25 0 -39 -9t-16.5 -18t-2.5 -23v-125q0 -28 -21.5 -45.5t-44 -22.5t-46.5 -6v-3q16 -1 27 -2t28.5 -6t28.5 -13t19.5 -23.5t8.5 -36.5v-125q0 -14 2.5 -23t16.5 -18t39 -9h35v-108h-152q-47 0 -90 28t-43 79
v158q0 54 -69 54z" />
    <glyph glyph-name="bar" unicode="|" horiz-adv-x="222" 
d="M42 750h138v-1000h-138v1000z" />
    <glyph glyph-name="braceright" unicode="}" horiz-adv-x="494" 
d="M118 0v108h35q25 0 39 9t16.5 18t2.5 23v125q0 28 21.5 45.5t44 22.5t46.5 6v3q-16 1 -27 2t-28.5 6t-28.5 13t-19.5 23.5t-8.5 36.5v125q0 14 -2.5 23t-16.5 18t-39 9h-35v108h152q47 0 90 -28t43 -79v-158q0 -54 69 -54v-92q-69 0 -69 -47v-159q0 -51 -43 -79t-90 -28
h-152z" />
    <glyph glyph-name="asciitilde" unicode="~" horiz-adv-x="600" 
d="M105 145l-36 125q45 86 125 86q40 0 115 -34t98 -34q19 0 36.5 12.5t27 25t24.5 35.5l36 -125q-20 -27 -33 -42t-38 -29.5t-54 -14.5q-37 0 -102.5 34t-113.5 34q-52 -1 -85 -73z" />
    <glyph glyph-name="uni00A0" unicode="&#xa0;" horiz-adv-x="494" 
 />
    <glyph glyph-name="exclamdown" unicode="&#xa1;" horiz-adv-x="494" 
d="M142 350v204h210v-204h-210zM145 -170v172l9 263h186l9 -263v-172h-204z" />
    <glyph glyph-name="cent" unicode="&#xa2;" horiz-adv-x="988" 
d="M345 296v-68q0 -65 57 -80l63 226h-2q-61 0 -89.5 -18.5t-28.5 -59.5zM153 234v49q0 70 16.5 117.5t49.5 72.5t73.5 35t96.5 10h117l35 126h114l-36 -127q99 -4 153 -45.5t54 -122.5v-48h-180q0 33 -15.5 49t-52.5 21l-65 -229h32q104 0 104 59v13h186v-46
q0 -65 -34.5 -106t-82 -55.5t-108.5 -14.5h-139l-36 -126h-112l36 128q-44 4 -78 15.5t-64.5 37t-47 73t-16.5 114.5z" />
    <glyph glyph-name="sterling" unicode="&#xa3;" horiz-adv-x="988" 
d="M61 0v162q42 0 59 20t17 65q0 20 -1 30h-92v138h87q-4 45 -4 97q0 70 21 115t64.5 67.5t93.5 30t125 7.5h209q87 0 144.5 -15.5t89.5 -48t45 -74.5t13 -103h-198q0 51 -15 68t-60 17h-236q-51 0 -66.5 -13t-15.5 -52v-96h317v-138h-317q0 -40 -11 -66t-41 -46v-3h655
v-162h-883z" />
    <glyph glyph-name="currency" unicode="&#xa4;" horiz-adv-x="988" 
d="M352 362q0 -63 40 -108.5t102 -45.5t102 45.5t40 108.5t-40 108.5t-102 45.5t-102 -45.5t-40 -108.5zM214 362q0 89 49 159l-63 64l76 76l64 -65q71 46 154 46q86 0 154 -46l64 65l76 -76l-63 -64q49 -71 49 -159t-49 -158l63 -65l-76 -76l-64 66q-67 -47 -154 -47
q-83 0 -154 46l-64 -65l-76 76l63 64q-49 71 -49 159z" />
    <glyph glyph-name="yen" unicode="&#xa5;" horiz-adv-x="988" 
d="M171 103v120h221v31l-16 20h-205v120h108l-267 330h228l254 -336l254 336h228l-267 -330h108v-120h-205l-16 -20v-31h221v-120h-221v-103h-204v103h-221z" />
    <glyph glyph-name="brokenbar" unicode="&#xa6;" horiz-adv-x="222" 
d="M42 675h138v-350h-138v350zM42 175h138v-350h-138v350z" />
    <glyph glyph-name="section" unicode="&#xa7;" 
d="M272 346l231 -44q47 -7 58 -7q23 0 35 15.5t12 38.5q0 37 -50 45l-290 53q-5 1 -13.5 3t-10.5 2q-12 0 -21.5 -15t-9.5 -32q0 -26 15 -38.5t44 -20.5zM103 151h156v-26q0 -37 80 -37h154q25 0 42 11t17 34t-13 31.5t-52 16.5l-297 55q-47 9 -78 40t-31 82q0 55 26.5 80
t77.5 32v2q-74 34 -74 118q0 76 39.5 109t117.5 33h262q152 0 152 -119v-19h-150q0 25 -10.5 33.5t-41.5 8.5h-165q-25 0 -36.5 -8t-11.5 -29q0 -31 69 -43l241 -36q88 -12 122.5 -44t34.5 -90q0 -104 -108 -109v-2q82 -34 82 -135q0 -71 -34.5 -109.5t-133.5 -38.5h-282
q-76 0 -115.5 30t-39.5 107v22z" />
    <glyph glyph-name="dieresis" unicode="&#xa8;" horiz-adv-x="346" 
d="M-59 609v150h192v-150h-192zM213 609v150h192v-150h-192z" />
    <glyph glyph-name="copyright" unicode="&#xa9;" horiz-adv-x="800" 
d="M481 308h102q-12 -75 -61 -115t-117 -40q-89 0 -145 59.5t-56 148.5q0 92 54 150.5t145 58.5q69 0 116.5 -38.5t59.5 -110.5h-96q-12 53 -76 53q-43 0 -66 -30t-23 -81q0 -50 24.5 -82t61.5 -32q70 0 77 59zM400 100q110 0 180 72t70 190t-70 190t-180 72t-180 -72
t-70 -190t70 -190t180 -72zM30 362q0 153 108.5 261.5t261.5 108.5t261.5 -108.5t108.5 -261.5t-108.5 -261.5t-261.5 -108.5t-261.5 108.5t-108.5 261.5z" />
    <glyph glyph-name="ordfeminine" unicode="&#xaa;" horiz-adv-x="497" 
d="M29 499v22q0 25 8 42.5t21 27t38.5 14.5t49 6t65.5 1q58 0 86 -5t45 -22v33q0 24 -11.5 33t-46.5 9h-74q-28 0 -37.5 -5t-10.5 -22h-120q0 61 33 80t117 19h145q64 0 97.5 -28.5t33.5 -83.5v-204h-118v35q-28 -26 -47 -33.5t-64 -7.5h-85q-63 0 -94 18.5t-31 70.5z
M215 482h36q41 0 62.5 4.5t26.5 10.5t5 17q0 20 -13 26t-63 6h-56q-39 0 -51.5 -7.5t-12.5 -29.5q0 -27 66 -27z" />
    <glyph glyph-name="guillemotleft" unicode="&#xab;" horiz-adv-x="519" 
d="M111 77l-121 175l121 177h169l-120 -177l120 -175h-169zM360 77l-121 175l121 177h169l-120 -177l120 -175h-169z" />
    <glyph glyph-name="logicalnot" unicode="&#xac;" horiz-adv-x="600" 
d="M415 126v181h-368v138h506v-319h-138z" />
    <glyph glyph-name="uni00AD" unicode="&#xad;" horiz-adv-x="444" 
d="M82 163v180h280v-180h-280z" />
    <glyph glyph-name="registered" unicode="&#xae;" horiz-adv-x="800" 
d="M252 167v380h147q85 0 125 -26.5t40 -93.5q0 -98 -98 -103l85 -157h-97l-76 151h-36v-151h-90zM342 475v-85h73q27 0 40 10t13 37q0 38 -73 38h-53zM400 100q110 0 180 72t70 190t-70 190t-180 72t-180 -72t-70 -190t70 -190t180 -72zM30 362q0 153 108.5 261.5
t261.5 108.5t261.5 -108.5t108.5 -261.5t-108.5 -261.5t-261.5 -108.5t-261.5 108.5t-108.5 261.5z" />
    <glyph glyph-name="macron" unicode="&#xaf;" horiz-adv-x="346" 
d="M-68 634v114h482v-114h-482z" />
    <glyph glyph-name="degree" unicode="&#xb0;" horiz-adv-x="400" 
d="M132 568q0 -28 20 -48t48 -20t48 20t20 48t-20 48t-48 20t-48 -20t-20 -48zM36 568q0 68 48 116t116 48t116 -48t48 -116t-48 -116t-116 -48t-116 48t-48 116z" />
    <glyph glyph-name="plusminus" unicode="&#xb1;" horiz-adv-x="600" 
d="M47 265v138h184v103h138v-103h184v-138h-184v-103h-138v103h-184zM47 0v138h506v-138h-506z" />
    <glyph glyph-name="twosuperior" unicode="&#xb2;" horiz-adv-x="642" 
d="M44 293v147q0 86 131 94l146 10q80 5 96 10t16 26q0 20 -5 28t-24.5 12t-66.5 4h-57q-47 0 -63.5 -10.5t-16.5 -43.5v-3h-156v51q0 63 42.5 88.5t141.5 25.5h190q99 0 135 -29t36 -99q0 -96 -31.5 -124t-142.5 -34l-149 -8q-43 -2 -56.5 -10t-13.5 -27h402v-108h-554z
" />
    <glyph glyph-name="threesuperior" unicode="&#xb3;" horiz-adv-x="642" 
d="M44 399v46h156q0 -35 12.5 -43.5t50.5 -8.5h129q32 0 41 7.5t9 27.5q0 29 -52 29h-126v102h113q33 0 44 6.5t11 20.5q0 21 -15.5 29.5t-49.5 8.5h-103q-36 0 -48.5 -9.5t-12.5 -36.5h-156v24q0 84 48.5 107t190.5 23h95q125 0 166 -24t41 -97q0 -53 -14 -70t-64 -31v-2
q55 -8 71.5 -28.5t16.5 -74.5q0 -67 -34 -93.5t-129 -26.5h-237q-154 0 -154 114z" />
    <glyph glyph-name="acute" unicode="&#xb4;" horiz-adv-x="346" 
d="M49 595l128 198h243l-212 -198h-159z" />
    <glyph glyph-name="mu" unicode="&#xb5;" 
d="M66 -178v688h192v-293q0 -75 124 -75h44q62 0 96.5 28.5t34.5 82.5v257h192v-510h-192v82h-2q-25 -53 -58.5 -71.5t-102.5 -18.5q-62 0 -89 12.5t-45 43.5h-2v-226h-192z" />
    <glyph glyph-name="paragraph" unicode="&#xb6;" horiz-adv-x="620" 
d="M239 0v375q-108 0 -165.5 45t-57.5 126q0 100 64.5 139t181.5 39h318v-724h-138v622h-65v-622h-138z" />
    <glyph glyph-name="periodcentered" unicode="&#xb7;" horiz-adv-x="494" 
d="M127 346q0 50 35.5 85t84.5 35t84.5 -35t35.5 -85t-35.5 -85t-84.5 -35t-84.5 35t-35.5 85z" />
    <glyph glyph-name="cedilla" unicode="&#xb8;" horiz-adv-x="346" 
d="M17 -271l26 62q70 -24 109 -24q67 0 67 48q0 23 -16.5 35.5t-38.5 12.5q-32 0 -55 -9l-29 23l76 123h74l-54 -82q23 5 43 5q50 0 88 -26.5t38 -73.5q0 -65 -50.5 -96.5t-120.5 -31.5q-57 0 -157 34z" />
    <glyph glyph-name="onesuperior" unicode="&#xb9;" horiz-adv-x="642" 
d="M320 293v311l-174 -103l-65 103l199 120h190v-431h-150z" />
    <glyph glyph-name="ordmasculine" unicode="&#xba;" horiz-adv-x="530" 
d="M34 533v76q0 123 138 123h187q137 0 137 -123v-76q0 -123 -137 -123h-187q-138 0 -138 123zM160 584v-26q0 -33 20 -45.5t65 -12.5h28q61 0 79 9.5t18 41.5v40q0 32 -18 41.5t-79 9.5h-28q-45 0 -65 -12.5t-20 -45.5z" />
    <glyph glyph-name="guillemotright" unicode="&#xbb;" horiz-adv-x="519" 
d="M239 77l120 177l-120 175h169l121 -175l-121 -177h-169zM-10 77l120 177l-120 175h169l121 -175l-121 -177h-169z" />
    <glyph glyph-name="onequarter" unicode="&#xbc;" horiz-adv-x="1480" 
d="M783 77v165l337 189h166v-240h69v-114h-69v-77h-156v77h-347zM1130 191v120l-215 -118v-2h215zM323 -8l568 740h122l-564 -740h-126zM320 293v311l-174 -103l-65 103l199 120h190v-431h-150z" />
    <glyph glyph-name="onehalf" unicode="&#xbd;" horiz-adv-x="1480" 
d="M323 -8l568 740h122l-564 -740h-126zM320 293v311l-174 -103l-65 103l199 120h190v-431h-150zM803 0v147q0 86 131 94l146 10q80 5 96 10t16 26q0 20 -5 28t-24.5 12t-66.5 4h-57q-47 0 -63.5 -10.5t-16.5 -43.5v-3h-156v51q0 63 42.5 88.5t141.5 25.5h190q99 0 135 -29
t36 -99q0 -96 -31.5 -124t-142.5 -34l-149 -8q-43 -2 -56.5 -10t-13.5 -27h400v-108h-552z" />
    <glyph glyph-name="threequarters" unicode="&#xbe;" horiz-adv-x="1480" 
d="M418 -8l568 740h122l-564 -740h-126zM73 399v46h156q0 -35 12.5 -43.5t50.5 -8.5h129q32 0 41 7.5t9 27.5q0 29 -52 29h-126v102h113q33 0 44 6.5t11 20.5q0 21 -15.5 29.5t-49.5 8.5h-103q-36 0 -48.5 -9.5t-12.5 -36.5h-156v24q0 84 48.5 107t190.5 23h95
q125 0 166 -24t41 -97q0 -53 -14 -70t-64 -31v-2q55 -8 71.5 -28.5t16.5 -74.5q0 -67 -34 -93.5t-129 -26.5h-237q-154 0 -154 114zM813 77v165l337 189h166v-240h69v-114h-69v-77h-156v77h-347zM1160 311l-215 -118v-2h215v120z" />
    <glyph glyph-name="questiondown" unicode="&#xbf;" 
d="M55 0v53q0 56 10 90.5t35.5 53.5t53 26.5t79.5 14.5q80 11 102.5 24.5t22.5 42.5h192v-40q0 -77 -32.5 -107.5t-130.5 -46.5q-95 -15 -120.5 -27t-25.5 -48q0 -41 20.5 -55.5t79.5 -14.5h154q95 0 95 89v30h186v-72q0 -105 -61 -148t-221 -43h-170q-51 0 -88.5 4t-73 15
t-58 30.5t-36 51.5t-13.5 77zM346 362v192h210v-192h-210z" />
    <glyph glyph-name="Agrave" unicode="&#xc0;" horiz-adv-x="1087" 
d="M4 0l392 724h289l398 -724h-247l-69 128h-450l-65 -128h-248zM540 556l-140 -272h284zM509 780l-212 198h243l128 -198h-159z" />
    <glyph glyph-name="Aacute" unicode="&#xc1;" horiz-adv-x="1087" 
d="M4 0l392 724h289l398 -724h-247l-69 128h-450l-65 -128h-248zM540 556l-140 -272h284zM420 780l128 198h243l-212 -198h-159z" />
    <glyph glyph-name="Acircumflex" unicode="&#xc2;" horiz-adv-x="1087" 
d="M4 0l392 724h289l398 -724h-247l-69 128h-450l-65 -128h-248zM540 556l-140 -272h284zM293 780l149 198h202l151 -198h-172l-80 108l-81 -108h-169z" />
    <glyph glyph-name="Atilde" unicode="&#xc3;" horiz-adv-x="1087" 
d="M4 0l392 724h289l398 -724h-247l-69 128h-450l-65 -128h-248zM540 556l-140 -272h284zM386 784h-95q8 69 52 124.5t109 55.5q32 0 105 -27q70 -28 87 -28q22 0 38.5 16.5t19.5 38.5h95q-10 -76 -48.5 -122.5t-110.5 -46.5q-43 0 -107.5 24t-82.5 24q-24 0 -41.5 -17
t-20.5 -42z" />
    <glyph glyph-name="Adieresis" unicode="&#xc4;" horiz-adv-x="1087" 
d="M4 0l392 724h289l398 -724h-247l-69 128h-450l-65 -128h-248zM540 556l-140 -272h284zM312 794v150h192v-150h-192zM584 794v150h192v-150h-192z" />
    <glyph glyph-name="Aring" unicode="&#xc5;" horiz-adv-x="1087" 
d="M4 0l392 724h289l398 -724h-247l-69 128h-450l-65 -128h-248zM540 556l-140 -272h284zM402 922q0 58 42 100t100 42t100 -42t42 -100t-42 -100t-100 -42t-100 42t-42 100zM480 922q0 -26 19 -45t45 -19t45 19t19 45t-19 45t-45 19t-45 -19t-19 -45z" />
    <glyph glyph-name="AE" unicode="&#xc6;" horiz-adv-x="1334" 
d="M4 0l470 724h820v-168h-423v-116h410v-150h-410v-116h425v-174h-647v146h-301l-94 -146h-250zM649 290v278h-31l-178 -278h209z" />
    <glyph glyph-name="Ccedilla" unicode="&#xc7;" horiz-adv-x="1062" 
d="M59 254v216q0 78 21 130t64.5 80.5t98.5 40t135 11.5h261q96 0 159 -9.5t103 -27t60 -52.5t27 -76t6 -108h-222v20q0 37 -25.5 52t-78.5 15h-242q-82 0 -110.5 -35.5t-28.5 -109.5v-78q0 -82 25.5 -113.5t101.5 -31.5h237q79 0 104.5 17.5t25.5 82.5h222v-68
q0 -50 -11 -86.5t-38.5 -68t-82 -47.5t-135.5 -16h-161l-49 -74q23 5 43 5q50 0 88 -26.5t38 -73.5q0 -65 -50.5 -96.5t-120.5 -31.5q-57 0 -157 34l26 62q70 -24 109 -24q67 0 67 48q0 23 -16.5 35.5t-38.5 12.5q-32 0 -55 -9l-29 23l71 115h-123q-80 0 -135 11.5t-98.5 40
t-64.5 80.5t-21 130z" />
    <glyph glyph-name="Egrave" unicode="&#xc8;" horiz-adv-x="939" 
d="M75 0v724h792v-168h-570v-116h540v-150h-540v-116h583v-174h-805zM435 780l-212 198h243l128 -198h-159z" />
    <glyph glyph-name="Eacute" unicode="&#xc9;" horiz-adv-x="939" 
d="M75 0v724h792v-168h-570v-116h540v-150h-540v-116h583v-174h-805zM346 780l128 198h243l-212 -198h-159z" />
    <glyph glyph-name="Ecircumflex" unicode="&#xca;" horiz-adv-x="939" 
d="M75 0v724h792v-168h-570v-116h540v-150h-540v-116h583v-174h-805zM219 780l149 198h202l151 -198h-172l-80 108l-81 -108h-169z" />
    <glyph glyph-name="Edieresis" unicode="&#xcb;" horiz-adv-x="939" 
d="M75 0v724h792v-168h-570v-116h540v-150h-540v-116h583v-174h-805zM238 794v150h192v-150h-192zM510 794v150h192v-150h-192z" />
    <glyph glyph-name="Igrave" unicode="&#xcc;" horiz-adv-x="396" 
d="M87 0v724h222v-724h-222zM163 780l-212 198h243l128 -198h-159z" />
    <glyph glyph-name="Iacute" unicode="&#xcd;" horiz-adv-x="396" 
d="M87 0v724h222v-724h-222zM74 780l128 198h243l-212 -198h-159z" />
    <glyph glyph-name="Icircumflex" unicode="&#xce;" horiz-adv-x="396" 
d="M87 0v724h222v-724h-222zM-53 780l149 198h202l151 -198h-172l-80 108l-81 -108h-169z" />
    <glyph glyph-name="Idieresis" unicode="&#xcf;" horiz-adv-x="396" 
d="M87 0v724h222v-724h-222zM-34 794v150h192v-150h-192zM238 794v150h192v-150h-192z" />
    <glyph glyph-name="Eth" unicode="&#xd0;" horiz-adv-x="1112" 
d="M83 0v328h-69v108h69v288h670q165 0 232.5 -58t67.5 -194v-220q0 -136 -67.5 -194t-232.5 -58h-670zM305 328v-142h394q73 0 102.5 27.5t29.5 102.5v98q0 75 -29.5 102.5t-102.5 27.5h-394v-108h335v-108h-335z" />
    <glyph glyph-name="Ntilde" unicode="&#xd1;" horiz-adv-x="1135" 
d="M75 0v724h344l417 -526h2v526h222v-724h-344l-417 526h-2v-526h-222zM410 784h-95q8 69 52 124.5t109 55.5q32 0 105 -27q70 -28 87 -28q22 0 38.5 16.5t19.5 38.5h95q-10 -76 -48.5 -122.5t-110.5 -46.5q-43 0 -107.5 24t-82.5 24q-24 0 -41.5 -17t-20.5 -42z" />
    <glyph glyph-name="Ograve" unicode="&#xd2;" horiz-adv-x="1112" 
d="M59 254v216q0 78 21 130t64.5 80.5t98.5 40t135 11.5h356q80 0 135 -11.5t98.5 -40t64.5 -80.5t21 -130v-216q0 -78 -21 -130t-64.5 -80.5t-98.5 -40t-135 -11.5h-356q-80 0 -135 11.5t-98.5 40t-64.5 80.5t-21 130zM287 401v-78q0 -82 25.5 -113.5t101.5 -31.5h284
q76 0 101.5 31.5t25.5 113.5v78q0 74 -28.5 109.5t-110.5 35.5h-260q-82 0 -110.5 -35.5t-28.5 -109.5zM521 780l-212 198h243l128 -198h-159z" />
    <glyph glyph-name="Oacute" unicode="&#xd3;" horiz-adv-x="1112" 
d="M59 254v216q0 78 21 130t64.5 80.5t98.5 40t135 11.5h356q80 0 135 -11.5t98.5 -40t64.5 -80.5t21 -130v-216q0 -78 -21 -130t-64.5 -80.5t-98.5 -40t-135 -11.5h-356q-80 0 -135 11.5t-98.5 40t-64.5 80.5t-21 130zM287 401v-78q0 -82 25.5 -113.5t101.5 -31.5h284
q76 0 101.5 31.5t25.5 113.5v78q0 74 -28.5 109.5t-110.5 35.5h-260q-82 0 -110.5 -35.5t-28.5 -109.5zM432 780l128 198h243l-212 -198h-159z" />
    <glyph glyph-name="Ocircumflex" unicode="&#xd4;" horiz-adv-x="1112" 
d="M59 254v216q0 78 21 130t64.5 80.5t98.5 40t135 11.5h356q80 0 135 -11.5t98.5 -40t64.5 -80.5t21 -130v-216q0 -78 -21 -130t-64.5 -80.5t-98.5 -40t-135 -11.5h-356q-80 0 -135 11.5t-98.5 40t-64.5 80.5t-21 130zM287 401v-78q0 -82 25.5 -113.5t101.5 -31.5h284
q76 0 101.5 31.5t25.5 113.5v78q0 74 -28.5 109.5t-110.5 35.5h-260q-82 0 -110.5 -35.5t-28.5 -109.5zM305 780l149 198h202l151 -198h-172l-80 108l-81 -108h-169z" />
    <glyph glyph-name="Otilde" unicode="&#xd5;" horiz-adv-x="1112" 
d="M59 254v216q0 78 21 130t64.5 80.5t98.5 40t135 11.5h356q80 0 135 -11.5t98.5 -40t64.5 -80.5t21 -130v-216q0 -78 -21 -130t-64.5 -80.5t-98.5 -40t-135 -11.5h-356q-80 0 -135 11.5t-98.5 40t-64.5 80.5t-21 130zM287 401v-78q0 -82 25.5 -113.5t101.5 -31.5h284
q76 0 101.5 31.5t25.5 113.5v78q0 74 -28.5 109.5t-110.5 35.5h-260q-82 0 -110.5 -35.5t-28.5 -109.5zM398 784h-95q8 69 52 124.5t109 55.5q32 0 105 -27q70 -28 87 -28q22 0 38.5 16.5t19.5 38.5h95q-10 -76 -48.5 -122.5t-110.5 -46.5q-43 0 -107.5 24t-82.5 24
q-24 0 -41.5 -17t-20.5 -42z" />
    <glyph glyph-name="Odieresis" unicode="&#xd6;" horiz-adv-x="1112" 
d="M59 254v216q0 78 21 130t64.5 80.5t98.5 40t135 11.5h356q80 0 135 -11.5t98.5 -40t64.5 -80.5t21 -130v-216q0 -78 -21 -130t-64.5 -80.5t-98.5 -40t-135 -11.5h-356q-80 0 -135 11.5t-98.5 40t-64.5 80.5t-21 130zM287 401v-78q0 -82 25.5 -113.5t101.5 -31.5h284
q76 0 101.5 31.5t25.5 113.5v78q0 74 -28.5 109.5t-110.5 35.5h-260q-82 0 -110.5 -35.5t-28.5 -109.5zM324 794v150h192v-150h-192zM596 794v150h192v-150h-192z" />
    <glyph glyph-name="multiply" unicode="&#xd7;" horiz-adv-x="600" 
d="M152 11l-94 94l149 148l-149 148l94 94l148 -149l148 149l94 -94l-149 -148l149 -148l-94 -94l-148 149z" />
    <glyph glyph-name="Oslash" unicode="&#xd8;" horiz-adv-x="1112" 
d="M287 401v-78q0 -60 12 -89l418 310q-18 2 -31 2h-260q-82 0 -110.5 -35.5t-28.5 -109.5zM811 488l-418 -309q5 -1 21 -1h284q76 0 101.5 31.5t25.5 113.5v78q0 56 -14 87zM59 254v216q0 78 21 130t64.5 80.5t98.5 40t135 11.5h356q126 0 197 -30l67 49l65 -77l-51 -38
q41 -59 41 -166v-216q0 -78 -21 -130t-64.5 -80.5t-98.5 -40t-135 -11.5h-356q-128 0 -197 31l-67 -50l-65 77l52 38q-42 57 -42 166z" />
    <glyph glyph-name="Ugrave" unicode="&#xd9;" horiz-adv-x="1062" 
d="M75 258v466h222v-418q0 -69 28 -98.5t96 -29.5h220q68 0 96 29.5t28 98.5v418h222v-466q0 -136 -72.5 -201t-224.5 -65h-318q-152 0 -224.5 65t-72.5 201zM496 780l-212 198h243l128 -198h-159z" />
    <glyph glyph-name="Uacute" unicode="&#xda;" horiz-adv-x="1062" 
d="M75 258v466h222v-418q0 -69 28 -98.5t96 -29.5h220q68 0 96 29.5t28 98.5v418h222v-466q0 -136 -72.5 -201t-224.5 -65h-318q-152 0 -224.5 65t-72.5 201zM407 780l128 198h243l-212 -198h-159z" />
    <glyph glyph-name="Ucircumflex" unicode="&#xdb;" horiz-adv-x="1062" 
d="M75 258v466h222v-418q0 -69 28 -98.5t96 -29.5h220q68 0 96 29.5t28 98.5v418h222v-466q0 -136 -72.5 -201t-224.5 -65h-318q-152 0 -224.5 65t-72.5 201zM280 780l149 198h202l151 -198h-172l-80 108l-81 -108h-169z" />
    <glyph glyph-name="Udieresis" unicode="&#xdc;" horiz-adv-x="1062" 
d="M75 258v466h222v-418q0 -69 28 -98.5t96 -29.5h220q68 0 96 29.5t28 98.5v418h222v-466q0 -136 -72.5 -201t-224.5 -65h-318q-152 0 -224.5 65t-72.5 201zM299 794v150h192v-150h-192zM571 794v150h192v-150h-192z" />
    <glyph glyph-name="Yacute" unicode="&#xdd;" horiz-adv-x="1038" 
d="M408 0v252l-401 472h268l244 -296l244 296h268l-401 -472v-252h-222zM395 780l128 198h243l-212 -198h-159z" />
    <glyph glyph-name="Thorn" unicode="&#xde;" horiz-adv-x="987" 
d="M75 0v724h222v-63h383q77 0 129.5 -18t81 -53t40 -77.5t11.5 -99.5v-62q0 -44 -10 -82.5t-32.5 -73.5t-64 -55.5t-97.5 -20.5h-441v-119h-222zM297 481v-182h345q72 0 72 77v28q0 77 -91 77h-326z" />
    <glyph glyph-name="germandbls" unicode="&#xdf;" 
d="M66 0v525q0 104 62.5 155.5t161.5 51.5h192q125 0 178 -45t53 -141q0 -58 -17.5 -88t-61.5 -48v-2q61 -11 91 -47t30 -105v-54q0 -41 -3.5 -69t-17 -57t-37.5 -46t-66 -27.5t-102 -10.5q-45 0 -171 6v139l43 -4t47 -3q115 0 115 80v54q0 40 -27 53.5t-106 13.5h-72v126
h80q89 -2 89 71q0 41 -20.5 53.5t-71.5 12.5h-68q-68 0 -88.5 -17.5t-20.5 -73.5v-503h-192z" />
    <glyph glyph-name="agrave" unicode="&#xe0;" horiz-adv-x="765" 
d="M34 137v42q0 41 12.5 68.5t32 43t59 23.5t76.5 10t102 2q89 0 131.5 -7.5t68.5 -33.5v45q0 39 -17.5 53.5t-72.5 14.5h-113q-44 0 -58.5 -7.5t-15.5 -33.5h-186q0 99 50.5 130t179.5 31h223q99 0 150.5 -46.5t51.5 -136.5v-335h-182v58q-41 -42 -70 -54t-99 -12h-131
q-96 -1 -144 30t-48 115zM321 112h55q63 0 95.5 7t40.5 17t8 30q0 31 -21 41.5t-96 10.5h-85q-58 0 -78 -13.5t-20 -46.5q0 -25 22.5 -35.5t78.5 -10.5zM348 595l-212 198h243l128 -198h-159z" />
    <glyph glyph-name="aacute" unicode="&#xe1;" horiz-adv-x="765" 
d="M34 137v42q0 41 12.5 68.5t32 43t59 23.5t76.5 10t102 2q89 0 131.5 -7.5t68.5 -33.5v45q0 39 -17.5 53.5t-72.5 14.5h-113q-44 0 -58.5 -7.5t-15.5 -33.5h-186q0 99 50.5 130t179.5 31h223q99 0 150.5 -46.5t51.5 -136.5v-335h-182v58q-41 -42 -70 -54t-99 -12h-131
q-96 -1 -144 30t-48 115zM321 112h55q63 0 95.5 7t40.5 17t8 30q0 31 -21 41.5t-96 10.5h-85q-58 0 -78 -13.5t-20 -46.5q0 -25 22.5 -35.5t78.5 -10.5zM259 595l128 198h243l-212 -198h-159z" />
    <glyph glyph-name="acircumflex" unicode="&#xe2;" horiz-adv-x="765" 
d="M34 137v42q0 41 12.5 68.5t32 43t59 23.5t76.5 10t102 2q89 0 131.5 -7.5t68.5 -33.5v45q0 39 -17.5 53.5t-72.5 14.5h-113q-44 0 -58.5 -7.5t-15.5 -33.5h-186q0 99 50.5 130t179.5 31h223q99 0 150.5 -46.5t51.5 -136.5v-335h-182v58q-41 -42 -70 -54t-99 -12h-131
q-96 -1 -144 30t-48 115zM321 112h55q63 0 95.5 7t40.5 17t8 30q0 31 -21 41.5t-96 10.5h-85q-58 0 -78 -13.5t-20 -46.5q0 -25 22.5 -35.5t78.5 -10.5zM132 595l149 198h202l151 -198h-172l-80 108l-81 -108h-169z" />
    <glyph glyph-name="atilde" unicode="&#xe3;" horiz-adv-x="765" 
d="M34 137v42q0 41 12.5 68.5t32 43t59 23.5t76.5 10t102 2q89 0 131.5 -7.5t68.5 -33.5v45q0 39 -17.5 53.5t-72.5 14.5h-113q-44 0 -58.5 -7.5t-15.5 -33.5h-186q0 99 50.5 130t179.5 31h223q99 0 150.5 -46.5t51.5 -136.5v-335h-182v58q-41 -42 -70 -54t-99 -12h-131
q-96 -1 -144 30t-48 115zM321 112h55q63 0 95.5 7t40.5 17t8 30q0 31 -21 41.5t-96 10.5h-85q-58 0 -78 -13.5t-20 -46.5q0 -25 22.5 -35.5t78.5 -10.5zM225 599h-95q8 69 52 124.5t109 55.5q32 0 105 -27q70 -28 87 -28q22 0 38.5 16.5t19.5 38.5h95q-10 -76 -48.5 -122.5
t-110.5 -46.5q-43 0 -107.5 24t-82.5 24q-24 0 -41.5 -17t-20.5 -42z" />
    <glyph glyph-name="adieresis" unicode="&#xe4;" horiz-adv-x="765" 
d="M34 137v42q0 41 12.5 68.5t32 43t59 23.5t76.5 10t102 2q89 0 131.5 -7.5t68.5 -33.5v45q0 39 -17.5 53.5t-72.5 14.5h-113q-44 0 -58.5 -7.5t-15.5 -33.5h-186q0 99 50.5 130t179.5 31h223q99 0 150.5 -46.5t51.5 -136.5v-335h-182v58q-41 -42 -70 -54t-99 -12h-131
q-96 -1 -144 30t-48 115zM321 112h55q63 0 95.5 7t40.5 17t8 30q0 31 -21 41.5t-96 10.5h-85q-58 0 -78 -13.5t-20 -46.5q0 -25 22.5 -35.5t78.5 -10.5zM151 609v150h192v-150h-192zM423 609v150h192v-150h-192z" />
    <glyph glyph-name="aring" unicode="&#xe5;" horiz-adv-x="765" 
d="M34 137v42q0 41 12.5 68.5t32 43t59 23.5t76.5 10t102 2q89 0 131.5 -7.5t68.5 -33.5v45q0 39 -17.5 53.5t-72.5 14.5h-113q-44 0 -58.5 -7.5t-15.5 -33.5h-186q0 99 50.5 130t179.5 31h223q99 0 150.5 -46.5t51.5 -136.5v-335h-182v58q-41 -42 -70 -54t-99 -12h-131
q-96 -1 -144 30t-48 115zM321 112h55q63 0 95.5 7t40.5 17t8 30q0 31 -21 41.5t-96 10.5h-85q-58 0 -78 -13.5t-20 -46.5q0 -25 22.5 -35.5t78.5 -10.5zM241 737q0 59 41.5 100.5t100.5 41.5t100.5 -41.5t41.5 -100.5t-41.5 -100.5t-100.5 -41.5t-100.5 41.5t-41.5 100.5z
M319 737q0 -26 19 -45t45 -19t45 19t19 45t-19 45t-45 19t-45 -19t-19 -45z" />
    <glyph glyph-name="ae" unicode="&#xe6;" horiz-adv-x="1210" 
d="M703 326h279q0 45 -27 58.5t-112 13.5q-65 0 -93 -6t-37.5 -19.5t-9.5 -46.5zM34 137v42q0 41 12.5 68.5t32 43t59 23.5t76.5 10t102 2q89 0 131.5 -7.5t68.5 -33.5v45q0 39 -17.5 53.5t-72.5 14.5h-113q-44 0 -58.5 -7.5t-15.5 -33.5h-186q0 99 50.5 130t179.5 31h162
q135 0 162 -82h2q25 82 167 82h104q58 0 98 -4t78.5 -17.5t61.5 -37t36.5 -64t13.5 -97.5v-86h-466v-31q0 -39 27.5 -54t90.5 -15h59q49 0 74 9t30 19.5t5 29.5h180v-22q0 -46 -19.5 -78t-56 -48.5t-79 -23t-98.5 -6.5h-116q-84 0 -126 13t-70 60q-23 -48 -71 -60.5
t-175 -12.5h-131q-96 -1 -144 30t-48 115zM321 112h55q63 0 95.5 7t40.5 17t8 30q0 31 -21 41.5t-96 10.5h-85q-58 0 -78 -13.5t-20 -46.5q0 -25 22.5 -35.5t78.5 -10.5z" />
    <glyph glyph-name="ccedilla" unicode="&#xe7;" horiz-adv-x="765" 
d="M42 234v49q0 70 16.5 117.5t49.5 72.5t73.5 35t96.5 10h216q229 0 229 -169v-46h-186q0 39 -24.5 55t-86.5 16h-74q-61 0 -89.5 -18.5t-28.5 -59.5v-68q0 -86 102 -86h98q103 0 103 59v12h186v-45q0 -49 -19 -85t-52 -55t-71 -27.5t-82 -8.5h-72l-49 -74q23 5 43 5
q50 0 88 -26.5t38 -73.5q0 -65 -50.5 -96.5t-120.5 -31.5q-57 0 -157 34l26 62q70 -24 109 -24q67 0 67 48q0 23 -16.5 35.5t-38.5 12.5q-32 0 -55 -9l-29 23l71 115h-50q-44 0 -76.5 4t-69.5 18.5t-60.5 40t-39 71t-15.5 108.5z" />
    <glyph glyph-name="egrave" unicode="&#xe8;" horiz-adv-x="742" 
d="M42 234v49q0 70 16.5 117.5t49.5 72.5t73.5 35t96.5 10h134q159 0 223.5 -45.5t64.5 -174.5v-86h-466v-31q0 -39 27.5 -54t90.5 -15h59q49 0 74 9t30 19.5t5 29.5h180v-22q0 -46 -19.5 -78t-56 -48.5t-79 -23t-98.5 -6.5h-144q-44 0 -76.5 4t-69.5 18.5t-60.5 40t-39 71
t-15.5 108.5zM234 326h280q0 45 -27.5 58.5t-112.5 13.5q-65 0 -93 -6t-37.5 -19.5t-9.5 -46.5zM336 595l-212 198h243l128 -198h-159z" />
    <glyph glyph-name="eacute" unicode="&#xe9;" horiz-adv-x="742" 
d="M42 234v49q0 70 16.5 117.5t49.5 72.5t73.5 35t96.5 10h134q159 0 223.5 -45.5t64.5 -174.5v-86h-466v-31q0 -39 27.5 -54t90.5 -15h59q49 0 74 9t30 19.5t5 29.5h180v-22q0 -46 -19.5 -78t-56 -48.5t-79 -23t-98.5 -6.5h-144q-44 0 -76.5 4t-69.5 18.5t-60.5 40t-39 71
t-15.5 108.5zM234 326h280q0 45 -27.5 58.5t-112.5 13.5q-65 0 -93 -6t-37.5 -19.5t-9.5 -46.5zM247 595l128 198h243l-212 -198h-159z" />
    <glyph glyph-name="ecircumflex" unicode="&#xea;" horiz-adv-x="742" 
d="M42 234v49q0 70 16.5 117.5t49.5 72.5t73.5 35t96.5 10h134q159 0 223.5 -45.5t64.5 -174.5v-86h-466v-31q0 -39 27.5 -54t90.5 -15h59q49 0 74 9t30 19.5t5 29.5h180v-22q0 -46 -19.5 -78t-56 -48.5t-79 -23t-98.5 -6.5h-144q-44 0 -76.5 4t-69.5 18.5t-60.5 40t-39 71
t-15.5 108.5zM234 326h280q0 45 -27.5 58.5t-112.5 13.5q-65 0 -93 -6t-37.5 -19.5t-9.5 -46.5zM120 595l149 198h202l151 -198h-172l-80 108l-81 -108h-169z" />
    <glyph glyph-name="edieresis" unicode="&#xeb;" horiz-adv-x="742" 
d="M42 234v49q0 70 16.5 117.5t49.5 72.5t73.5 35t96.5 10h134q159 0 223.5 -45.5t64.5 -174.5v-86h-466v-31q0 -39 27.5 -54t90.5 -15h59q49 0 74 9t30 19.5t5 29.5h180v-22q0 -46 -19.5 -78t-56 -48.5t-79 -23t-98.5 -6.5h-144q-44 0 -76.5 4t-69.5 18.5t-60.5 40t-39 71
t-15.5 108.5zM234 326h280q0 45 -27.5 58.5t-112.5 13.5q-65 0 -93 -6t-37.5 -19.5t-9.5 -46.5zM139 609v150h192v-150h-192zM411 609v150h192v-150h-192z" />
    <glyph glyph-name="igrave" unicode="&#xec;" horiz-adv-x="346" 
d="M77 0v510h192v-510h-192zM138 595l-212 198h243l128 -198h-159z" />
    <glyph glyph-name="iacute" unicode="&#xed;" horiz-adv-x="346" 
d="M77 0v510h192v-510h-192zM49 595l128 198h243l-212 -198h-159z" />
    <glyph glyph-name="icircumflex" unicode="&#xee;" horiz-adv-x="346" 
d="M77 0v510h192v-510h-192zM-78 595l149 198h202l151 -198h-172l-80 108l-81 -108h-169z" />
    <glyph glyph-name="idieresis" unicode="&#xef;" horiz-adv-x="346" 
d="M77 0v510h192v-510h-192zM-59 609v150h192v-150h-192zM213 609v150h192v-150h-192z" />
    <glyph glyph-name="eth" unicode="&#xf0;" 
d="M245 279v-48q0 -53 31 -74t100 -21h46q92 0 120 16t28 68v70q0 52 -28 68t-120 16h-46q-69 0 -100 -21t-31 -74zM285 537l-55 57l51 35v2q-48 3 -140 3l47 138q159 0 258 -24l100 71l55 -57l-61 -44q109 -47 165 -143.5t57 -258.5v-122q0 -202 -211 -202h-287
q-211 0 -211 202v122q0 202 211 202h160q57 0 89.5 -10.5t60.5 -45.5l2 2q-45 113 -184 149z" />
    <glyph glyph-name="ntilde" unicode="&#xf1;" 
d="M66 0v510h192v-82h2q24 51 73 70.5t131 19.5q33 0 54 -1t54 -5.5t54.5 -13t47 -25t40.5 -39.5t25 -59t10 -82v-293h-192v293q0 75 -124 75h-44q-62 0 -96.5 -28.5t-34.5 -82.5v-257h-192zM250 599h-95q8 69 52 124.5t109 55.5q32 0 105 -27q70 -28 87 -28q22 0 38.5 16.5
t19.5 38.5h95q-10 -76 -48.5 -122.5t-110.5 -46.5q-43 0 -107.5 24t-82.5 24q-24 0 -41.5 -17t-20.5 -42z" />
    <glyph glyph-name="ograve" unicode="&#xf2;" 
d="M53 194v122q0 202 211 202h287q211 0 211 -202v-122q0 -202 -211 -202h-287q-211 0 -211 202zM245 279v-48q0 -53 31 -74t100 -21h46q92 0 120 16t28 68v70q0 52 -28 68t-120 16h-46q-69 0 -100 -21t-31 -74zM373 595l-212 198h243l128 -198h-159z" />
    <glyph glyph-name="oacute" unicode="&#xf3;" 
d="M53 194v122q0 202 211 202h287q211 0 211 -202v-122q0 -202 -211 -202h-287q-211 0 -211 202zM245 279v-48q0 -53 31 -74t100 -21h46q92 0 120 16t28 68v70q0 52 -28 68t-120 16h-46q-69 0 -100 -21t-31 -74zM284 595l128 198h243l-212 -198h-159z" />
    <glyph glyph-name="ocircumflex" unicode="&#xf4;" 
d="M53 194v122q0 202 211 202h287q211 0 211 -202v-122q0 -202 -211 -202h-287q-211 0 -211 202zM245 279v-48q0 -53 31 -74t100 -21h46q92 0 120 16t28 68v70q0 52 -28 68t-120 16h-46q-69 0 -100 -21t-31 -74zM157 595l149 198h202l151 -198h-172l-80 108l-81 -108h-169z
" />
    <glyph glyph-name="otilde" unicode="&#xf5;" 
d="M53 194v122q0 202 211 202h287q211 0 211 -202v-122q0 -202 -211 -202h-287q-211 0 -211 202zM245 279v-48q0 -53 31 -74t100 -21h46q92 0 120 16t28 68v70q0 52 -28 68t-120 16h-46q-69 0 -100 -21t-31 -74zM250 599h-95q8 69 52 124.5t109 55.5q32 0 105 -27
q70 -28 87 -28q22 0 38.5 16.5t19.5 38.5h95q-10 -76 -48.5 -122.5t-110.5 -46.5q-43 0 -107.5 24t-82.5 24q-24 0 -41.5 -17t-20.5 -42z" />
    <glyph glyph-name="odieresis" unicode="&#xf6;" 
d="M53 194v122q0 202 211 202h287q211 0 211 -202v-122q0 -202 -211 -202h-287q-211 0 -211 202zM245 279v-48q0 -53 31 -74t100 -21h46q92 0 120 16t28 68v70q0 52 -28 68t-120 16h-46q-69 0 -100 -21t-31 -74zM176 609v150h192v-150h-192zM448 609v150h192v-150h-192z" />
    <glyph glyph-name="divide" unicode="&#xf7;" horiz-adv-x="600" 
d="M47 193v120h506v-120h-506zM207 460q0 38 27.5 65.5t65.5 27.5t65.5 -27.5t27.5 -65.5t-27.5 -65.5t-65.5 -27.5t-65.5 27.5t-27.5 65.5zM207 46q0 38 27.5 65.5t65.5 27.5t65.5 -27.5t27.5 -65.5t-27.5 -65.5t-65.5 -27.5t-65.5 27.5t-27.5 65.5z" />
    <glyph glyph-name="oslash" unicode="&#xf8;" 
d="M245 279v-48q0 -15 3 -26l250 165q-25 4 -76 4h-46q-69 0 -100 -21t-31 -74zM569 308l-252 -167q27 -5 59 -5h46q92 0 120 16t28 68v70q0 12 -1 18zM53 183v120q0 132 57 173.5t218 41.5h223q79 0 127 -30l69 46l53 -76l-57 -36q19 -40 19 -96v-143q0 -55 -18.5 -94.5
t-51 -59.5t-67 -28.5t-74.5 -8.5h-287q-79 0 -127 30l-69 -46l-53 75l58 38q-20 40 -20 94z" />
    <glyph glyph-name="ugrave" unicode="&#xf9;" 
d="M749 510v-510h-192v82h-2q-24 -51 -73 -70.5t-131 -19.5q-33 0 -54 1t-54 5.5t-54.5 13t-47 25t-40.5 39.5t-25 59t-10 82v293h192v-293q0 -75 124 -75h44q62 0 96.5 28.5t34.5 82.5v257h192zM373 595l-212 198h243l128 -198h-159z" />
    <glyph glyph-name="uacute" unicode="&#xfa;" 
d="M749 510v-510h-192v82h-2q-24 -51 -73 -70.5t-131 -19.5q-33 0 -54 1t-54 5.5t-54.5 13t-47 25t-40.5 39.5t-25 59t-10 82v293h192v-293q0 -75 124 -75h44q62 0 96.5 28.5t34.5 82.5v257h192zM284 595l128 198h243l-212 -198h-159z" />
    <glyph glyph-name="ucircumflex" unicode="&#xfb;" 
d="M749 510v-510h-192v82h-2q-24 -51 -73 -70.5t-131 -19.5q-33 0 -54 1t-54 5.5t-54.5 13t-47 25t-40.5 39.5t-25 59t-10 82v293h192v-293q0 -75 124 -75h44q62 0 96.5 28.5t34.5 82.5v257h192zM157 595l149 198h202l151 -198h-172l-80 108l-81 -108h-169z" />
    <glyph glyph-name="udieresis" unicode="&#xfc;" 
d="M749 510v-510h-192v82h-2q-24 -51 -73 -70.5t-131 -19.5q-33 0 -54 1t-54 5.5t-54.5 13t-47 25t-40.5 39.5t-25 59t-10 82v293h192v-293q0 -75 124 -75h44q62 0 96.5 28.5t34.5 82.5v257h192zM176 609v150h192v-150h-192zM448 609v150h192v-150h-192z" />
    <glyph glyph-name="yacute" unicode="&#xfd;" horiz-adv-x="716" 
d="M164 -174v122h16q62 0 93.5 16t31.5 58h-68l-234 488h208l147 -355l147 355h208l-286 -604q-22 -45 -66 -64.5t-119 -19.5q-2 0 -78 4zM234 595l128 198h243l-212 -198h-159z" />
    <glyph glyph-name="thorn" unicode="&#xfe;" 
d="M258 280v-50q0 -55 27.5 -74.5t88.5 -19.5h101q64 0 82.5 20.5t18.5 68.5v60q0 48 -18.5 68.5t-82.5 20.5h-101q-61 0 -88.5 -19.5t-27.5 -74.5zM66 -178v902h192v-308h2q15 102 172 102h57q88 0 144.5 -14.5t83.5 -46t36 -66.5t9 -90v-92q0 -55 -9 -90t-36 -66.5
t-83.5 -46t-144.5 -14.5h-39q-84 0 -121 18t-69 78h-2v-266h-192z" />
    <glyph glyph-name="ydieresis" unicode="&#xff;" horiz-adv-x="716" 
d="M164 -174v122h16q62 0 93.5 16t31.5 58h-68l-234 488h208l147 -355l147 355h208l-286 -604q-22 -45 -66 -64.5t-119 -19.5q-2 0 -78 4zM126 609v150h192v-150h-192zM398 609v150h192v-150h-192z" />
    <glyph glyph-name="dotlessi" unicode="&#x131;" horiz-adv-x="346" 
d="M77 0v510h192v-510h-192z" />
    <glyph glyph-name="Lslash" unicode="&#x141;" 
d="M74 0v226l-55 -30v133l55 29v366h222v-248l178 94v-132l-178 -94v-158h500v-186h-722z" />
    <glyph glyph-name="lslash" unicode="&#x142;" horiz-adv-x="346" 
d="M77 0v262l-56 -30v114l56 30v348h192v-246l56 32v-116l-56 -30v-364h-192z" />
    <glyph glyph-name="OE" unicode="&#x152;" horiz-adv-x="1334" 
d="M30 254v216q0 78 21 130t64.5 80.5t98.5 40t135 11.5h146q158 0 193 -102h2v94h604v-168h-407v-116h394v-150h-394v-116h409v-174h-608v82h-2q-28 -51 -70.5 -70.5t-137.5 -19.5h-129q-80 0 -135 11.5t-98.5 40t-64.5 80.5t-21 130zM246 445v-140q0 -81 27 -104t112 -23
h141q85 0 112 23t27 104v140q0 63 -27.5 82t-111.5 19h-141q-84 0 -111.5 -19t-27.5 -82z" />
    <glyph glyph-name="oe" unicode="&#x153;" horiz-adv-x="1259" 
d="M234 279v-48q0 -53 31 -74t100 -21h46q92 0 120 16t28 68v70q0 52 -28 68t-120 16h-46q-69 0 -100 -21t-31 -74zM42 194v122q0 202 211 202h213q99 0 139.5 -29.5t45.5 -65.5h2q10 47 56 71t140 24h80q159 0 223.5 -45.5t64.5 -174.5v-86h-466v-31q0 -39 27.5 -54
t90.5 -15h59q49 0 74 9t30 19.5t5 29.5h180v-22q0 -46 -19.5 -78t-56 -48.5t-79 -23t-98.5 -6.5h-137q-87 0 -123.5 19t-50.5 60h-2q-26 -79 -210 -79h-188q-211 0 -211 202zM751 326h280q0 45 -27.5 58.5t-112.5 13.5q-65 0 -93 -6t-37.5 -19.5t-9.5 -46.5z" />
    <glyph glyph-name="Scaron" unicode="&#x160;" horiz-adv-x="1037" 
d="M62 187v50h222q1 -54 21.5 -68.5t74.5 -14.5h272q21 0 35 2t29.5 7.5t23 18.5t7.5 33q0 37 -22 48q-33 17 -198 19h-92q-86 0 -143.5 3.5t-101 14t-67 24.5t-38 41t-18.5 57t-4 78q0 33 1.5 54.5t7.5 48.5t17.5 43.5t33 35t52 28t76 16t104.5 6.5h310q75 0 127.5 -10.5
t82 -27.5t45.5 -46.5t20.5 -58t4.5 -71.5v-23h-222q0 44 -18 59.5t-90 15.5h-246q-84 0 -84 -56q0 -38 23 -49q30 -15 181 -15h61q95 0 152.5 -2t110.5 -10.5t80 -23t48 -41.5t27.5 -63.5t6.5 -90.5q0 -76 -14 -118.5t-57 -68t-108 -33t-182 -7.5h-269q-157 0 -220 40.5
t-63 154.5zM418 780l-150 198h170l81 -106l81 106h170l-150 -198h-202z" />
    <glyph glyph-name="scaron" unicode="&#x161;" horiz-adv-x="791" 
d="M47 159h198q0 -16 6.5 -25t33.5 -15.5t79 -6.5h68q69 0 91.5 7.5t22.5 30.5t-17 32.5t-66 9.5h-180q-135 1 -183.5 38t-48.5 142q0 46 17 76t51.5 45t72.5 20t93 5h134q127 0 189.5 -14.5t84.5 -45.5t23 -95h-192q-8 23 -32.5 29t-110.5 6t-109 -6t-23 -32
q0 -17 21.5 -23.5t93.5 -6.5h133q67 0 114 -9.5t72.5 -23t39.5 -37.5t17.5 -45t3.5 -53q0 -102 -54.5 -136t-218.5 -34h-182q-134 0 -188 36.5t-54 130.5zM295 595l-150 198h170l81 -106l81 106h170l-150 -198h-202z" />
    <glyph glyph-name="Ydieresis" unicode="&#x178;" horiz-adv-x="1038" 
d="M408 0v252l-401 472h268l244 -296l244 296h268l-401 -472v-252h-222zM287 794v150h192v-150h-192zM559 794v150h192v-150h-192z" />
    <glyph glyph-name="Zcaron" unicode="&#x17d;" horiz-adv-x="939" 
d="M40 0v174l519 374v2h-505v174h833v-174l-518 -374v-2h530v-174h-859zM369 780l-150 198h170l81 -106l81 106h170l-150 -198h-202z" />
    <glyph glyph-name="zcaron" unicode="&#x17e;" horiz-adv-x="642" 
d="M26 0v130l310 246v2h-294v132h560v-150l-293 -226v-2h307v-132h-590zM220 595l-150 198h170l81 -106l81 106h170l-150 -198h-202z" />
    <glyph glyph-name="florin" unicode="&#x192;" horiz-adv-x="988" 
d="M155 259v156h262l21 88q14 61 38 104t51.5 67t66.5 37.5t73.5 17t83.5 3.5q99 0 165 -12v-161q-85 17 -136 17q-74 0 -104 -23t-46 -95l-10 -43h244v-156h-275l-43 -216q-8 -37 -27 -71.5t-55 -70.5t-99 -57.5t-145 -21.5q-93 0 -148 13v157q38 -14 106 -14
q31 0 49.5 1.5t40.5 7t35 16.5t25 31.5t19 50.5l36 174h-228z" />
    <glyph glyph-name="circumflex" unicode="&#x2c6;" horiz-adv-x="346" 
d="M-78 595l149 198h202l151 -198h-172l-80 108l-81 -108h-169z" />
    <glyph glyph-name="caron" unicode="&#x2c7;" horiz-adv-x="346" 
d="M72 595l-150 198h170l81 -106l81 106h170l-150 -198h-202z" />
    <glyph glyph-name="uni02C9" unicode="&#x2c9;" horiz-adv-x="346" 
d="M-68 634v114h482v-114h-482z" />
    <glyph glyph-name="breve" unicode="&#x2d8;" horiz-adv-x="346" 
d="M-59 797h96q13 -88 145 -88q48 0 85.5 22t41.5 66h96q-4 -99 -71.5 -150.5t-169.5 -51.5q-97 0 -160 53t-63 149z" />
    <glyph glyph-name="dotaccent" unicode="&#x2d9;" horiz-adv-x="346" 
d="M77 609v150h192v-150h-192z" />
    <glyph glyph-name="ring" unicode="&#x2da;" horiz-adv-x="346" 
d="M31 737q0 59 41.5 100.5t100.5 41.5t100.5 -41.5t41.5 -100.5t-41.5 -100.5t-100.5 -41.5t-100.5 41.5t-41.5 100.5zM109 737q0 -26 19 -45t45 -19t45 19t19 45t-19 45t-45 19t-45 -19t-19 -45z" />
    <glyph glyph-name="ogonek" unicode="&#x2db;" horiz-adv-x="346" 
d="M211 0h57q-74 -46 -102.5 -84.5t-28.5 -80.5q0 -28 18 -48t56 -20q56 0 106 41l18 -41q-30 -30 -80 -51t-106 -21q-69 0 -103.5 32t-34.5 81q0 55 50.5 108t149.5 84z" />
    <glyph glyph-name="tilde" unicode="&#x2dc;" horiz-adv-x="346" 
d="M15 599h-95q8 69 52 124.5t109 55.5q32 0 105 -27q70 -28 87 -28q22 0 38.5 16.5t19.5 38.5h95q-10 -76 -48.5 -122.5t-110.5 -46.5q-43 0 -107.5 24t-82.5 24q-24 0 -41.5 -17t-20.5 -42z" />
    <glyph glyph-name="hungarumlaut" unicode="&#x2dd;" horiz-adv-x="346" 
d="M-91 595l128 198h243l-212 -198h-159zM179 595l128 198h243l-212 -198h-159z" />
    <glyph glyph-name="uni03A9" unicode="&#x3a9;" horiz-adv-x="959" 
d="M226 136v3q-67 38 -114.5 105t-47.5 159q0 137 115 229t302 92t300.5 -92.5t113.5 -230.5q0 -91 -45 -153t-122 -109v-3h181v-136h-382v106q84 50 129 110.5t45 152.5t-60.5 157t-157.5 65q-96 0 -159.5 -62t-63.5 -163q0 -86 47.5 -154.5t126.5 -105.5v-106h-385v136
h177z" />
    <glyph glyph-name="uni03BC" unicode="&#x3bc;" 
d="M66 -178v688h192v-293q0 -75 124 -75h44q62 0 96.5 28.5t34.5 82.5v257h192v-510h-192v82h-2q-25 -53 -58.5 -71.5t-102.5 -18.5q-62 0 -89 12.5t-45 43.5h-2v-226h-192z" />
    <glyph glyph-name="pi" unicode="&#x3c0;" horiz-adv-x="791" 
d="M759 398h-82v-216q0 -121 14 -182h-190q-21 24 -21 165v233h-147q-2 -103 -22 -226t-47 -172h-191q27 76 48 195.5t20 202.5q-85 0 -122 -10l-19 108q42 39 222 39h554z" />
    <glyph glyph-name="uni2010" unicode="&#x2010;" horiz-adv-x="444" 
d="M82 163v180h280v-180h-280z" />
    <glyph glyph-name="endash" unicode="&#x2013;" horiz-adv-x="500" 
d="M0 190v126h500v-126h-500z" />
    <glyph glyph-name="emdash" unicode="&#x2014;" horiz-adv-x="1000" 
d="M0 190v126h1000v-126h-1000z" />
    <glyph glyph-name="quoteleft" unicode="&#x2018;" horiz-adv-x="346" 
d="M53 324v236q0 91 38.5 127.5t152.5 36.5h49v-114h-35q-53 0 -53 -51v-43h52v-192h-204z" />
    <glyph glyph-name="quoteright" unicode="&#x2019;" horiz-adv-x="346" 
d="M53 324v114h35q53 0 53 51v43h-52v192h204v-236q0 -91 -38.5 -127.5t-152.5 -36.5h-49z" />
    <glyph glyph-name="quotesinglbase" unicode="&#x201a;" horiz-adv-x="346" 
d="M53 -208v114h35q53 0 53 51v43h-52v192h204v-236q0 -91 -38.5 -127.5t-152.5 -36.5h-49z" />
    <glyph glyph-name="quotedblleft" unicode="&#x201c;" horiz-adv-x="667" 
d="M363 324v236q0 91 38.5 127.5t152.5 36.5h49v-114h-35q-53 0 -53 -51v-43h52v-192h-204zM64 324v236q0 91 38.5 127.5t152.5 36.5h49v-114h-35q-53 0 -53 -51v-43h52v-192h-204z" />
    <glyph glyph-name="quotedblright" unicode="&#x201d;" horiz-adv-x="667" 
d="M64 324v114h35q53 0 53 51v43h-52v192h204v-236q0 -91 -38.5 -127.5t-152.5 -36.5h-49zM363 324v114h35q53 0 53 51v43h-52v192h204v-236q0 -91 -38.5 -127.5t-152.5 -36.5h-49z" />
    <glyph glyph-name="quotedblbase" unicode="&#x201e;" horiz-adv-x="667" 
d="M64 -208v114h35q53 0 53 51v43h-52v192h204v-236q0 -91 -38.5 -127.5t-152.5 -36.5h-49zM363 -208v114h35q53 0 53 51v43h-52v192h204v-236q0 -91 -38.5 -127.5t-152.5 -36.5h-49z" />
    <glyph glyph-name="dagger" unicode="&#x2020;" horiz-adv-x="742" 
d="M290 0v402h-221v144h221v178h162v-178h221v-144h-221v-402h-162z" />
    <glyph glyph-name="daggerdbl" unicode="&#x2021;" horiz-adv-x="742" 
d="M290 0v137h-193v132h193v186h-193v132h193v137h162v-137h193v-132h-193v-186h193v-132h-193v-137h-162z" />
    <glyph glyph-name="bullet" unicode="&#x2022;" horiz-adv-x="500" 
d="M69 362q0 75 53 128t128 53t128 -53t53 -128t-53 -128t-128 -53t-128 53t-53 128z" />
    <glyph glyph-name="ellipsis" unicode="&#x2026;" horiz-adv-x="1000" 
d="M62 0v204h210v-204h-210zM395 0v204h210v-204h-210zM728 0v204h210v-204h-210z" />
    <glyph glyph-name="perthousand" unicode="&#x2030;" horiz-adv-x="1333" 
d="M284 -8l237 740h89l-237 -740h-89zM1062 234v-101q0 -34 13.5 -42.5t63.5 -8.5t63.5 8.5t13.5 42.5v101q0 30 -16 40t-61 10t-61 -10t-16 -40zM117 592v-101q0 -34 13.5 -42.5t63.5 -8.5t63.5 8.5t13.5 42.5v101q0 30 -16 40t-61 10t-61 -10t-16 -40zM623 234v-101
q0 -34 13 -41.5t64 -9.5q50 0 63.5 8.5t13.5 42.5v101q0 30 -16 40t-61 10t-61 -10t-16 -40zM515 133v100q0 87 41 114t144 27t144 -27t41 -114v-100q0 -87 -41 -114t-144 -27t-144 27t-41 114zM9 491v100q0 87 41 114t144 27t144 -27t41 -114v-100q0 -87 -41 -114t-144 -27
t-144 27t-41 114zM954 135v100q0 87 41 114t144 27t144 -27t41 -114v-100q0 -87 -41 -114t-144 -27t-144 27t-41 114z" />
    <glyph glyph-name="guilsinglleft" unicode="&#x2039;" horiz-adv-x="296" 
d="M124 77l-121 175l121 177h169l-120 -177l120 -175h-169z" />
    <glyph glyph-name="guilsinglright" unicode="&#x203a;" horiz-adv-x="296" 
d="M3 77l120 177l-120 175h169l121 -175l-121 -177h-169z" />
    <glyph glyph-name="fraction" unicode="&#x2044;" horiz-adv-x="222" 
d="M-234 -8l568 740h122l-564 -740h-126z" />
    <glyph glyph-name="Euro" unicode="&#x20ac;" horiz-adv-x="988" 
d="M980 682l-77 -178q-49 48 -198 48h-207q-105 0 -130 -69h524l-43 -102h-490v-38h475l-44 -102h-425q11 -37 38 -53t83 -16h227q152 0 220 55v-184q-71 -51 -237 -51h-234q-159 0 -237 53t-82 196h-124l43 102h81v38h-126l43 102h83q4 143 82 196t237 53h221
q123 0 179.5 -10.5t117.5 -39.5z" />
    <glyph glyph-name="afii61289" unicode="&#x2113;" horiz-adv-x="706" 
d="M593 235l82 -80q-53 -83 -132 -121.5t-168 -38.5q-182 0 -230 152q-1 1 -1 3.5t-1 3.5q-12 -6 -29.5 -17.5t-26.5 -16.5l-53 91l105 65v208q0 302 240 302q101 0 154 -55t53 -136q0 -94 -64 -175.5t-200 -182.5l1 -12q4 -38 31.5 -60.5t68.5 -22.5q48 0 93 26.5t77 66.5z
M322 543v-157q124 114 124 208q0 77 -56 77q-29 0 -48.5 -31t-19.5 -97z" />
    <glyph glyph-name="trademark" unicode="&#x2122;" horiz-adv-x="1000" 
d="M32 634v90h344v-90h-103v-322h-138v322h-103zM462 312v412h172l80 -238h2l80 238h172v-412h-126v226h-2l-73 -226h-104l-73 226h-2v-226h-126z" />
    <glyph glyph-name="Omega" unicode="&#x2126;" horiz-adv-x="959" 
d="M226 136v3q-67 38 -114.5 105t-47.5 159q0 137 115 229t302 92t300.5 -92.5t113.5 -230.5q0 -91 -45 -153t-122 -109v-3h181v-136h-382v106q84 50 129 110.5t45 152.5t-60.5 157t-157.5 65q-96 0 -159.5 -62t-63.5 -163q0 -86 47.5 -154.5t126.5 -105.5v-106h-385v136
h177z" />
    <glyph glyph-name="estimated" unicode="&#x212e;" horiz-adv-x="892" 
d="M857 352h-666q-5 0 -5 -5v-201q0 -13 8 -23q107 -110 252 -110q77 0 146 33t119 90h59q-56 -66 -142 -104.5t-183 -38.5q-170 0 -290 108t-120 261t120 261.5t290 108.5q171 0 291.5 -108.5t120.5 -261.5v-10zM706 378v202q0 13 -10 25q-108 105 -250 105
q-144 0 -251 -109q-9 -9 -9 -25v-198q0 -7 5 -7h510q5 0 5 7z" />
    <glyph glyph-name="partialdiff" unicode="&#x2202;" horiz-adv-x="745" 
d="M120 624l-57 116q108 67 256 67q166 0 273 -111t107 -289q0 -185 -107.5 -298.5t-275.5 -113.5q-70 0 -126.5 24.5t-89.5 62.5t-50 80.5t-17 82.5q0 111 77.5 188.5t202.5 77.5q72 0 123 -31.5t75 -66.5h1v22q0 100 -57.5 167t-158.5 67q-95 0 -176 -45zM337 130h2
q58 0 100.5 47t51.5 108q-8 32 -44.5 63.5t-87.5 31.5q-59 0 -97.5 -38.5t-38.5 -96.5q0 -50 32.5 -82.5t81.5 -32.5z" />
    <glyph glyph-name="uni2206" unicode="&#x2206;" horiz-adv-x="854" 
d="M26 0v88l286 641h233l283 -641v-88h-802zM235 137h368l-127 310q-43 102 -57 148h-6q-1 -4 -50 -138z" />
    <glyph glyph-name="product" unicode="&#x220f;" horiz-adv-x="912" 
d="M891 563h-131v-661h-184v661h-242v-661h-183v661h-132v148h872v-148z" />
    <glyph glyph-name="summation" unicode="&#x2211;" horiz-adv-x="726" 
d="M709 -98h-687v96l291 303l-274 297v113h642v-148h-378v-4l226 -242l-248 -263v-5h428v-147z" />
    <glyph glyph-name="minus" unicode="&#x2212;" horiz-adv-x="600" 
d="M47 184v138h506v-138h-506z" />
    <glyph glyph-name="uni2215" unicode="&#x2215;" horiz-adv-x="222" 
d="M-234 -8l568 740h122l-564 -740h-126z" />
    <glyph glyph-name="uni2219" unicode="&#x2219;" horiz-adv-x="494" 
d="M127 346q0 50 35.5 85t84.5 35t84.5 -35t35.5 -85t-35.5 -85t-84.5 -35t-84.5 35t-35.5 85z" />
    <glyph glyph-name="radical" unicode="&#x221a;" horiz-adv-x="761" 
d="M792 847l-298 -1004h-146l-199 443l-88 -36l-32 84l228 94l136 -339l29 -83h2q3 14 11 44.5l11 42.5l212 754h134z" />
    <glyph glyph-name="infinity" unicode="&#x221e;" horiz-adv-x="876" 
d="M824 297v-1q0 -90 -55.5 -144.5t-130.5 -54.5q-112 0 -203 122q-48 -60 -94.5 -91t-108.5 -31q-75 0 -129 54t-54 138q0 87 55 141.5t139 54.5q110 0 202 -118q2 2 14 16t16.5 18.5l17 17t19.5 18l20 15.5t24 14l25.5 9.5t30 7.5t31.5 2q77 -1 129 -52.5t52 -135.5z
M242 187h2q27 0 56 17t46 35t40 46q-28 40 -42.5 58t-43 35.5t-60.5 17.5q-42 0 -69.5 -29.5t-27.5 -77.5q0 -42 28.5 -72t70.5 -30zM634 396h-1q-10 0 -20 -2t-19.5 -7l-17 -9t-17.5 -12.5l-15 -13t-15 -15.5l-13.5 -15t-13 -16t-11.5 -14q47 -60 79.5 -82.5t68.5 -22.5
q41 0 66 31.5t25 69.5q0 48 -26.5 78t-69.5 30z" />
    <glyph glyph-name="integral" unicode="&#x222b;" horiz-adv-x="458" 
d="M454 872l-18 -107q-21 8 -47 8q-44 0 -64 -30q-28 -38 -28 -163q0 -81 10 -231t10 -245q0 -129 -42 -199q-53 -88 -167 -88q-65 0 -103 18l21 112q24 -11 55 -11q37 0 58 23q34 42 34 149q0 96 -10.5 250.5t-10.5 240.5q0 88 18.5 143.5t58.5 93.5q50 49 149 49
q46 0 76 -13z" />
    <glyph glyph-name="approxequal" unicode="&#x2248;" horiz-adv-x="677" 
d="M571 491l65 -68q-78 -110 -175 -110q-37 0 -65.5 10t-71.5 33q-66 34 -102 34t-64.5 -20t-60.5 -57l-63 68q29 46 82.5 78t108.5 32q63 0 125 -38q29 -17 41.5 -23.5t28.5 -11t35 -4.5q61 0 116 77zM571 275l65 -67q-78 -111 -177 -111q-25 0 -49.5 6.5t-40 14
t-45.5 23.5q-64 34 -101 34t-65 -19.5t-61 -57.5l-63 67q29 46 83 78.5t108 32.5q60 0 124 -37l23.5 -14t26 -14.5t23 -8t31.5 -4.5q34 0 60 18t58 59z" />
    <glyph glyph-name="notequal" unicode="&#x2260;" horiz-adv-x="677" 
d="M503 543l-41 -88h158v-98h-202l-64 -135h266v-98h-311l-60 -129l-80 38l43 91h-156v98h200l63 135h-263v98h307l59 126z" />
    <glyph glyph-name="lessequal" unicode="&#x2264;" horiz-adv-x="677" 
d="M619 134l-561 236v105l560 236v-107l-451 -180v-2l452 -181v-107zM620 -4h-564v100h564v-100z" />
    <glyph glyph-name="greaterequal" unicode="&#x2265;" horiz-adv-x="677" 
d="M58 711l561 -237v-104l-560 -236v107l451 181v2l-452 180v107zM613 -4h-556v100h556v-100z" />
    <glyph glyph-name="lozenge" unicode="&#x25ca;" horiz-adv-x="761" 
d="M707 354l-258 -403h-140l-256 403l256 405h140zM547 351l-148 246q-16 25 -21 38h-2q-7 -14 -21 -38l-143 -240l148 -246q17 -27 20 -37h3q1 1 8.5 15.5t11.5 21.5z" />
    <glyph glyph-name="fi" unicode="&#xfb01;" 
d="M557 0v510h192v-510h-192zM557 574v150h192v-150h-192zM104 0v378h-88v132h88v39q0 102 55 142.5t180 40.5q30 0 74 -2.5t56 -2.5v-130q-9 0 -25.5 1t-29.5 1.5t-23 0.5q-57 0 -76 -13.5t-19 -52.5v-24h182v-132h-182v-378h-192z" />
    <glyph glyph-name="fl" unicode="&#xfb02;" 
d="M557 0v724h192v-724h-192zM104 0v378h-88v132h88v39q0 102 55 142.5t180 40.5q30 0 74 -2.5t56 -2.5v-130q-9 0 -25.5 1t-29.5 1.5t-23 0.5q-57 0 -76 -13.5t-19 -52.5v-24h182v-132h-182v-378h-192z" />
    <glyph glyph-name="a.superior" horiz-adv-x="497" 
d="M29 499v22q0 25 8 42.5t21 27t38.5 14.5t49 6t65.5 1q58 0 86 -5t45 -22v33q0 24 -11.5 33t-46.5 9h-74q-28 0 -37.5 -5t-10.5 -22h-120q0 61 33 80t117 19h145q64 0 97.5 -28.5t33.5 -83.5v-204h-118v35q-28 -26 -47 -33.5t-64 -7.5h-85q-63 0 -94 18.5t-31 70.5z
M215 482h36q41 0 62.5 4.5t26.5 10.5t5 17q0 20 -13 26t-63 6h-56q-39 0 -51.5 -7.5t-12.5 -29.5q0 -27 66 -27z" />
    <glyph glyph-name="o.superior" horiz-adv-x="530" 
d="M34 533v76q0 123 138 123h187q137 0 137 -123v-76q0 -123 -137 -123h-187q-138 0 -138 123zM160 584v-26q0 -33 20 -45.5t65 -12.5h28q61 0 79 9.5t18 41.5v40q0 32 -18 41.5t-79 9.5h-28q-45 0 -65 -12.5t-20 -45.5z" />
    <glyph glyph-name="one.superior" horiz-adv-x="642" 
d="M320 293v311l-174 -103l-65 103l199 120h190v-431h-150z" />
    <glyph glyph-name="two.superior" horiz-adv-x="642" 
d="M44 293v147q0 86 131 94l146 10q80 5 96 10t16 26q0 20 -5 28t-24.5 12t-66.5 4h-57q-47 0 -63.5 -10.5t-16.5 -43.5v-3h-156v51q0 63 42.5 88.5t141.5 25.5h190q99 0 135 -29t36 -99q0 -96 -31.5 -124t-142.5 -34l-149 -8q-43 -2 -56.5 -10t-13.5 -27h402v-108h-554z
" />
    <glyph glyph-name="three.superior" horiz-adv-x="642" 
d="M44 399v46h156q0 -35 12.5 -43.5t50.5 -8.5h129q32 0 41 7.5t9 27.5q0 29 -52 29h-126v102h113q33 0 44 6.5t11 20.5q0 21 -15.5 29.5t-49.5 8.5h-103q-36 0 -48.5 -9.5t-12.5 -36.5h-156v24q0 84 48.5 107t190.5 23h95q125 0 166 -24t41 -97q0 -53 -14 -70t-64 -31v-2
q55 -8 71.5 -28.5t16.5 -74.5q0 -67 -34 -93.5t-129 -26.5h-237q-154 0 -154 114z" />
    </font>
</defs>
</svg>
