<svg xmlns="http://www.w3.org/2000/svg" viewBox="0 0 30 27.36"><defs><style>.cls-1{fill:#fff;}</style></defs><title>Back Yard</title><g id="Layer_2" data-name="Layer 2"><g id="Layer_1-2" data-name="Layer 1"><path class="cls-1" d="M0,27.36V4.86L.19,4.6,2.92.51a.94.94,0,0,1,1.67,0c.93,1.39,1.85,2.77,2.77,4.17a.8.8,0,0,1,.13.43c0,1,0,2.09,0,3.13v.36h3.75V8.28c0-1,0-2.09,0-3.14a.94.94,0,0,1,.13-.46C12.3,3.3,13.23,1.92,14.15.54a.94.94,0,0,1,1.7,0c.92,1.38,1.85,2.76,2.76,4.14a.94.94,0,0,1,.13.46c0,1.05,0,2.11,0,3.16v.31H22.5v-.3c0-1.07,0-2.13,0-3.19a.63.63,0,0,1,.06-.34c1-1.46,1.94-2.93,2.93-4.38A.91.91,0,0,1,27,.41l.45.68L30,4.86v22.5H22.49v-5.6H18.74v5.58h-7.5V21.77H7.49v5.59Zm11.23-7.5V10.52H7.51v9.34Zm11.26,0V10.51H18.77v9.35Z"/></g></g></svg>