<svg xmlns="http://www.w3.org/2000/svg" viewBox="0 0 30 22.19"><defs><style>.cls-1{fill:#fff;}</style></defs><title>Bedroom</title><g id="Layer_2" data-name="Layer 2"><g id="Layer_1-2" data-name="Layer 1"><path class="cls-1" d="M0,9H30v6.45H0Z"/><path class="cls-1" d="M30,22.19H28.3L28,20H2L1.7,22.19H0V16.62H30Z"/><path class="cls-1" d="M28.07,8.2H25.2V4.88c0-.14,0-.25-.17-.31a15.37,15.37,0,0,0-4.8-.83,14.13,14.13,0,0,0-4.49.86.37.37,0,0,0-.15.28c0,1,0,2,0,3v.32H14.42V7.87c0-1,0-2,0-3,0-.14,0-.25-.18-.3a15,15,0,0,0-4.79-.84A14,14,0,0,0,5,4.6a.35.35,0,0,0-.16.28c0,1,0,2,0,2.93v.38H1.93a2.46,2.46,0,0,1,0-.28c0-1.77,0-3.55,0-5.33a.34.34,0,0,1,.28-.39,41.23,41.23,0,0,1,9.24-2,36.77,36.77,0,0,1,9.77.37A49.11,49.11,0,0,1,27.85,2.2c.16,0,.25.11.25.29,0,1.84,0,3.68,0,5.51A1.68,1.68,0,0,1,28.07,8.2Z"/></g></g></svg>