<svg xmlns="http://www.w3.org/2000/svg" viewBox="0 0 30 22.75"><defs><style>.cls-1{fill:#fff;}</style></defs><title>Front Yard</title><g id="Layer_2" data-name="Layer 2"><g id="Layer_1-2" data-name="Layer 1"><path class="cls-1" d="M15.36,22.74H11.52c-.27,0-.39,0-.38-.36,0-1,0-2,0-3,0-.26.07-.33.33-.33.93,0,.93,0,.93-1q0-5.61,0-11.21c0-.38.08-.55.47-.47s.45-.07.44-.42c0-.64,0-1.28,0-1.92,0-.21,0-.29-.28-.28-.65,0-1.3,0-2,0-.24,0-.31-.07-.3-.31a9.73,9.73,0,0,0,0-1.08A1.65,1.65,0,0,1,11.49,1,4.79,4.79,0,0,1,13.68.14a9.79,9.79,0,0,1,4.53.28,3.75,3.75,0,0,1,1,.5A1.79,1.79,0,0,1,20,2.52a8.42,8.42,0,0,0,0,.87c0,.31-.05.44-.4.42-.61,0-1.22,0-1.83,0-.25,0-.34.05-.34.32,0,.65,0,1.31,0,2,0,.28.09.35.36.34.54,0,.54,0,.54.55q0,5.84,0,11.67c0,.35.08.45.43.44.83,0,.83,0,.83.84s0,1.67,0,2.5c0,.26-.08.33-.33.33Z"/><path class="cls-1" d="M23.68,19.53c1.48-3.18,2.59-4.75,3.75-5.33.1.14,0,.24-.07.35a20.67,20.67,0,0,0-2.14,7.93c0,.19-.07.24-.24.24H21.43c-.25,0-.25-.13-.25-.31a54.1,54.1,0,0,0-.32-5.69,20.84,20.84,0,0,0-.74-3.84l-.21-.57c.42,0,1.71,1.71,2.47,3.19A13.15,13.15,0,0,1,23.68,19.53Z"/><path class="cls-1" d="M2.32,16.89a11.22,11.22,0,0,1,2.5,3.88,12,12,0,0,1,2.83-7.06,32.19,32.19,0,0,0-.92,6.63,12.58,12.58,0,0,1,2.63-3.72c-.21.61-.44,1.22-.63,1.83a18.73,18.73,0,0,0-.8,3.91c0,.24-.07.37-.36.36-1.24,0-2.48,0-3.71,0-.29,0-.34-.1-.36-.36a18.38,18.38,0,0,0-1.08-4.9c-.06-.16-.14-.32-.21-.49Z"/><path class="cls-1" d="M30,17.09a11.51,11.51,0,0,0-.91,2.85,9.44,9.44,0,0,0-.17,2.49c0,.2,0,.29-.25.29-.66,0-1.31,0-2,0-.18,0-.29,0-.22-.25a11.15,11.15,0,0,1,3.34-5.32S29.88,17.13,30,17.09Z"/><path class="cls-1" d="M0,18.89a5.28,5.28,0,0,1,1,1,7.87,7.87,0,0,1,1.4,2.39c.11.3.13.47-.28.43s-.79.11-1.06,0S1,22,1,21.7A8.4,8.4,0,0,0,0,18.89Z"/><path class="cls-1" d="M10.41,19.11a8,8,0,0,0-.68,2.2,3.45,3.45,0,0,0,0,1.11c0,.21,0,.31-.23.3s-.69,0-1,0c-.17,0-.27,0-.2-.24a8,8,0,0,1,1.47-2.91A1.36,1.36,0,0,1,10.41,19.11Z"/><path class="cls-1" d="M6.28,3.13a.77.77,0,0,1-.78-.76.76.76,0,0,1,.74-.79.79.79,0,0,1,.81.77A.8.8,0,0,1,6.28,3.13Z"/><path class="cls-1" d="M20.54,6.47a.8.8,0,0,1-.79-.76.77.77,0,0,1,.79-.79.74.74,0,0,1,.75.77A.78.78,0,0,1,20.54,6.47Z"/><path class="cls-1" d="M4.67,3.86a.76.76,0,0,1-.78.75.77.77,0,0,1-.77-.77.78.78,0,1,1,1.55,0Z"/><path class="cls-1" d="M7.05,5.53a.77.77,0,0,1-.79.75.75.75,0,0,1-.76-.81.74.74,0,0,1,.8-.72A.76.76,0,0,1,7.05,5.53Z"/><path class="cls-1" d="M11,5.51a.78.78,0,1,1-1.55,0,.78.78,0,0,1,1.55,0Z"/><path class="cls-1" d="M21.69,7.36a.75.75,0,0,1,.76-.77.76.76,0,0,1,.78.8.79.79,0,0,1-.79.75A.78.78,0,0,1,21.69,7.36Z"/><path class="cls-1" d="M4.67,10.43a.78.78,0,0,1-1.55,0,.79.79,0,0,1,.79-.79A.78.78,0,0,1,4.67,10.43Z"/><path class="cls-1" d="M7.53,3.83a.76.76,0,0,1,.76-.77.82.82,0,0,1,.79.81.79.79,0,0,1-.8.74A.74.74,0,0,1,7.53,3.83Z"/><path class="cls-1" d="M24.5,8.09a.76.76,0,1,1-.06,1.52.76.76,0,0,1,.06-1.52Z"/><path class="cls-1" d="M23.72,5.69a.73.73,0,0,1,.75-.77.77.77,0,0,1,.79.75.8.8,0,0,1-.79.8A.76.76,0,0,1,23.72,5.69Z"/><path class="cls-1" d="M27.61,10.41a.74.74,0,0,1-.73.79.77.77,0,0,1-.8-.77.8.8,0,0,1,.76-.79A.76.76,0,0,1,27.61,10.41Z"/><path class="cls-1" d="M3.92,0a.76.76,0,0,1,.75.78.78.78,0,0,1-.77.77A.79.79,0,0,1,3.12.78.77.77,0,0,1,3.92,0Z"/><path class="cls-1" d="M27.61.76a.75.75,0,0,1-.78.79.78.78,0,0,1-.75-.79A.77.77,0,0,1,26.85,0,.73.73,0,0,1,27.61.76Z"/><path class="cls-1" d="M23.24,4.06a.82.82,0,0,1-.79.76A.78.78,0,0,1,21.69,4a.72.72,0,0,1,.79-.72A.77.77,0,0,1,23.24,4.06Z"/><path class="cls-1" d="M8.29,7.92a.72.72,0,0,1-.76-.76.74.74,0,0,1,.75-.77.79.79,0,0,1,.8.79A.77.77,0,0,1,8.29,7.92Z"/><path class="cls-1" d="M23.72,2.47a.74.74,0,0,1,.74-.78.77.77,0,0,1,.8.78.81.81,0,0,1-.78.77A.77.77,0,0,1,23.72,2.47Z"/><path class="cls-1" d="M26.85,3.28a.71.71,0,0,1,.76.75.77.77,0,0,1-.74.79A.79.79,0,0,1,26.08,4,.74.74,0,0,1,26.85,3.28Z"/><path class="cls-1" d="M27.61,7.34a.75.75,0,0,1-.77.8.8.8,0,0,1-.76-.78.77.77,0,0,1,.76-.77A.74.74,0,0,1,27.61,7.34Z"/><path class="cls-1" d="M6.27,9.5a.74.74,0,0,1-.77-.75A.79.79,0,0,1,6.29,8a.81.81,0,0,1,.76.79A.76.76,0,0,1,6.27,9.5Z"/><path class="cls-1" d="M3.9,7.92a.74.74,0,0,1-.78-.75.77.77,0,0,1,.79-.78.76.76,0,0,1,.75.78A.73.73,0,0,1,3.9,7.92Z"/></g></g></svg>