<svg xmlns="http://www.w3.org/2000/svg" viewBox="0 0 30 24.34"><defs><style>.cls-1{fill:#fff;}</style></defs><title>Kitchen</title><g id="Layer_2" data-name="Layer 2"><g id="Layer_1-2" data-name="Layer 1"><path class="cls-1" d="M15,8.18h12.6A2.22,2.22,0,0,1,30,10.58c0,1.19,0,2.38,0,3.58a2.24,2.24,0,0,1-1.36,2.2c-.85.41-1.69.85-2.54,1.26a.43.43,0,0,0-.28.44c0,1.82,0,.64,0,2.46A3.66,3.66,0,0,1,22,24.34H8a3.67,3.67,0,0,1-3.83-3.8c0-1.83,0-.66,0-2.5a.4.4,0,0,0-.26-.42L1.32,16.34A2.21,2.21,0,0,1,0,14.2V10.59A2.24,2.24,0,0,1,2.42,8.18Zm10.84,7.08,1-.18a.64.64,0,0,0,.62-.66c0-1,0-2,0-3a.66.66,0,0,0-.57-.69c-.35,0-.71,0-1.07,0ZM4.15,10.68H3.27a.71.71,0,0,0-.76.78A14.79,14.79,0,0,1,2.5,13a1.44,1.44,0,0,0,.72,1.53,7.64,7.64,0,0,1,.93.75Z"/><path class="cls-1" d="M19.17,4.18h.39c1.23,0,2.46,0,3.68,0a2.56,2.56,0,0,1,2.59,2.61c0,.54-.18.73-.72.73H5c-.66,0-.85-.2-.81-.87A2.58,2.58,0,0,1,6.81,4.18h4V2.72c0-.28,0-.56,0-.84A1.8,1.8,0,0,1,12.66,0c1.57,0,3.15,0,4.72,0a1.81,1.81,0,0,1,1.79,1.89C19.18,2.65,19.17,3.38,19.17,4.18Zm-2.52,0c0-.08,0-.14,0-.19,0-.25,0-.5,0-.75A.69.69,0,0,0,16,2.53H14a.68.68,0,0,0-.68.62c0,.33,0,.66,0,1Z"/></g></g></svg>