<svg xmlns="http://www.w3.org/2000/svg" viewBox="0 0 30 22.04"><defs><style>.cls-1{fill:#fff;}</style></defs><title>Living Room</title><g id="Layer_2" data-name="Layer 2"><g id="Layer_1-2" data-name="Layer 1"><path class="cls-1" d="M5,20c-.19,0-.35,0-.5,0A2.49,2.49,0,0,1,2,17.47C2,16,2,14.45,2,13a.43.43,0,0,0-.24-.42,3.46,3.46,0,0,1-1.59-4A3.51,3.51,0,0,1,3.72,6,3.62,3.62,0,0,1,6.94,9.34c0,.74,0,1.47,0,2.21v.36a38.07,38.07,0,0,1,16.08,0c0-.24,0-.43,0-.62a18.65,18.65,0,0,1,.08-2.37,3.46,3.46,0,1,1,5.15,3.61A.42.42,0,0,0,28,13c0,1.51,0,3,0,4.52a2.48,2.48,0,0,1-1.16,2.16,2.41,2.41,0,0,1-1.5.38c-.27,0-.37.06-.35.34s0,.71,0,1.06-.18.62-.6.62H22.62c-.42,0-.58-.17-.59-.6s0-.72,0-1.08S22,20,21.71,20H8.65C8,20,8,20,8,20.7c0,.26,0,.52,0,.79s-.17.54-.52.54c-.64,0-1.29,0-1.93,0-.35,0-.52-.21-.53-.58Zm1,0c0,.32,0,.59,0,.86a.29.29,0,0,0,.17.17c.81.11.89,0,.87-.77,0,0,0-.07,0-.08S6.88,20,6.82,20C6.55,20,6.28,20,6,20Zm17.58,1c.56,0,.5.06.5-.48s.09-.56-.56-.56S23,20,23,20.52,22.93,21.05,23.54,21.07Z"/><path class="cls-1" d="M22,10.67a39.15,39.15,0,0,0-14,0V9.73a4.69,4.69,0,0,0-.55-2.29A4.6,4.6,0,0,0,4.22,5C4.05,5,4,5,4,4.76A4.52,4.52,0,0,1,7.7.08,5.86,5.86,0,0,1,8.64,0h12.8A4.49,4.49,0,0,1,26,3.79c.06.32,0,.64.07,1S26,5,25.78,5a4.57,4.57,0,0,0-3.64,3.49A6.9,6.9,0,0,0,22,9.72C22,10,22,10.33,22,10.67Z"/></g></g></svg>