<svg xmlns="http://www.w3.org/2000/svg" viewBox="0 0 29.6 26"><defs><style>.cls-1{fill:#fff;stroke:#fff;stroke-miterlimit:10;}</style></defs><title>minimize</title><g id="Layer_2" data-name="Layer 2"><g id="Layer_1-2" data-name="Layer 1"><path class="cls-1" d="M.5,9.11a1.23,1.23,0,0,1,1.17-.58c2.26,0,4.52,0,6.85,0,0-.26,0-.48,0-.71q0-3,0-6a3.58,3.58,0,0,1,0-.57A.79.79,0,0,1,9.46.5a.78.78,0,0,1,.83.79q0,4.13,0,8.25a.72.72,0,0,1-.8.73c-2.73,0-5.46,0-8.18,0-.28,0-.54-.33-.81-.5Z"/><path class="cls-1" d="M29.1,9.62a1.11,1.11,0,0,1-1.16.68c-2.49,0-5,0-7.48,0-.94,0-1.16-.23-1.17-1.16,0-2.54,0-5.07,0-7.61a1.23,1.23,0,0,1,.5-.9,1,1,0,0,1,.9.12,1.48,1.48,0,0,1,.31,1c0,2,0,4.06,0,6.09v.76h1.39c1.84,0,3.68,0,5.52,0a1,1,0,0,1,1.14.7Z"/><path class="cls-1" d="M29.1,16.87a1.3,1.3,0,0,1-1.24.57c-2,0-4,0-6,0h-.75c0,.29,0,.51,0,.73v5.91c0,.21,0,.42,0,.63a.8.8,0,0,1-.87.76.79.79,0,0,1-.85-.83q0-4.06,0-8.13a.74.74,0,0,1,.8-.8c2.71,0,5.42,0,8.13,0,.29,0,.58.33.87.51Z"/><path class="cls-1" d="M.5,16.36a1.09,1.09,0,0,1,1.16-.68c2.51,0,5,0,7.55,0,.84,0,1.09.26,1.09,1.1q0,3.81,0,7.62c0,.68-.33,1.09-.86,1.09s-.88-.38-.89-1.09c0-2.07,0-4.14,0-6.22v-.76H1.71c-.56,0-1-.12-1.21-.7Z"/></g></g></svg>