<svg xmlns="http://www.w3.org/2000/svg" viewBox="0 0 28.84 30"><defs><style>.cls-1{fill:#fff;}</style></defs><title>Porch</title><g id="Layer_2" data-name="Layer 2"><g id="Layer_1-2" data-name="Layer 1"><path class="cls-1" d="M1.53,28V16.82a1.91,1.91,0,0,1,0-.48,1.06,1.06,0,0,1,1.1-.79,1.06,1.06,0,0,1,.91,1,5,5,0,0,1,0,.55H25.25v-.43a1.06,1.06,0,0,1,1.05-1.08,1,1,0,0,1,1,1.09c0,2.71,0,5.41,0,8.12v3.17h.5a1,1,0,0,1,1,.95A1,1,0,0,1,28,30a1.54,1.54,0,0,1-.37,0H1.23A1.09,1.09,0,0,1,0,29.2,1,1,0,0,1,1,28Zm9.43,0V19.18H8.29v8.74Zm2.1-8.76v8.76h2.69V19.16Zm7.43,8.77V19.18H17.85v8.75Zm4.73,0V19.17H22.6v8.76Zm-19-8.77H3.62v8.76H6.19Z"/><path class="cls-1" d="M5.52,14.72V7.48h8.16v7.24Z"/><path class="cls-1" d="M15.1,14.72V7.47h8.15v7.25Z"/><path class="cls-1" d="M5.51,6.06c0-1.73,0-3.42,0-5.11A.92.92,0,0,1,6.45,0c.31,0,.62,0,.93,0h6.29V6.06Z"/><path class="cls-1" d="M23.26,6.06H15.1V0h7c.87,0,1.2.33,1.2,1.19V6.06Z"/></g></g></svg>