<svg xmlns="http://www.w3.org/2000/svg" viewBox="0 0 30 24.8"><defs><style>.cls-1{fill:#fff;}</style></defs><title>Studio</title><g id="Layer_2" data-name="Layer 2"><g id="Layer_1-2" data-name="Layer 1"><path class="cls-1" d="M30,24.8h-.92V16.45H20.16V24.8h-.93V23.51h-8l-.08,1.29h-.79V12.67H30Zm-10.82-6H11.27V22.5h7.91Zm0-5.18H11.26v3.68h7.93Zm9.85.48H20.17v1.33H29Z"/><path class="cls-1" d="M30,9.33H18.32V0H30ZM29.05,1h-9.8V7h9.8ZM25.21,8.15c0-.49-.62-.61-.82-.59a.85.85,0,0,0-.56.56c0,.13.31.5.5.52S25.18,8.64,25.21,8.15Z"/><path class="cls-1" d="M0,13.2a1.67,1.67,0,0,1,2-.4,1,1,0,0,1,.35.66c0,.72,0,1.46,0,2.19,0,.51-.27.76-.79.76S.41,16.51,0,16Z"/><path class="cls-1" d="M10.83,12.13V1h6.45V12.13ZM16.38,2.4H11.77v.88h4.61Zm-1,2.77L15.53,5c-.14-.11-.28-.3-.42-.3-.71,0-1.41,0-2.12,0-.13,0-.25.21-.38.32l.12.15Zm1.5,5c0-.53-.68-.66-.9-.64a.85.85,0,0,0-.6.59c0,.2.33.58.56.61S16.84,10.73,16.86,10.19Z"/><path class="cls-1" d="M8,12.15c-1.2.09-1.52.83-1.42,1.88l-.51,0H2.81c.1-1-.15-1.82-1.37-1.91V10.93c0-2.22,0-4.44,0-6.66,0-.72.2-.94.88-.94H7.05c.56,0,.91.22.91.81Z"/><path class="cls-1" d="M5.76,22.3A14,14,0,0,1,7,23.21c.2.19.44.54.39.75a1,1,0,0,1-.64.61c-.22,0-.56-.21-.73-.43-.39-.51-.71-1.08-1.13-1.74-.49.64-1.2.87-1.28,1.68,0,.2-.43.49-.66.49a.86.86,0,0,1-.67-.48,1.06,1.06,0,0,1,.3-.84c.37-.39.84-.7,1.22-1.11-.61.18-1.35,0-1.72.77a.85.85,0,0,1-.8.21.87.87,0,0,1-.44-.7.91.91,0,0,1,.51-.65,20.27,20.27,0,0,1,2.43-.66.52.52,0,0,0,.48-.64c0-.84,0-1.68,0-2.57h.89c0,.84,0,1.68,0,2.51,0,.52.18.72.65.76.75.08,1.47.5,2.26.11.14-.07.59.19.67.39a.91.91,0,0,1-.12.82,1,1,0,0,1-.84.14c-.63-.14-1.25-.36-1.87-.55Z"/><path class="cls-1" d="M1.51,17C3,16.79,2.8,15.63,2.82,14.59H6.53c0,1-.22,2.2,1.32,2.36C7.34,17.51,2.06,17.51,1.51,17Z"/><path class="cls-1" d="M26.66,9.91l.05.84.88.09v.84H20.7v-.85l.84-.05.08-.87Z"/><path class="cls-1" d="M9.35,14.65v.66c0,1-.14,1.1-1.12,1.1s-1.17-.12-1.18-1.18c0-.55,0-1.11,0-1.66s.3-.88.88-.9c.88,0,1.35.23,1.41.85,0,.37,0,.75,0,1.13Z"/><path class="cls-1" d="M18.7,19.29V22H11.78V19.31h1.78c0,.79.53.94,1.21.89a8,8,0,0,1,1.2,0c.66,0,1.17-.09,1.15-.91Z"/><path class="cls-1" d="M11.75,16.85V14.16h1.82c0,.75.47.94,1.15.89a8.83,8.83,0,0,1,1.26,0c.66,0,1.15-.1,1.14-.91h1.55v2.71Z"/></g></g></svg>