<?xml version="1.0" encoding="utf-8"?>
<!-- Generator: Adobe Illustrator 23.0.1, SVG Export Plug-In . SVG Version: 6.00 Build 0)  -->
<svg version="1.1" id="Layer_1" xmlns="http://www.w3.org/2000/svg" xmlns:xlink="http://www.w3.org/1999/xlink" x="0px" y="0px"
	 viewBox="0 0 30 30" style="enable-background:new 0 0 30 30;" xml:space="preserve">
<style type="text/css">
	.st0{fill:#FFFFFF;}
</style>
<g>
	<path class="st0" d="M0,15C0,6.7,6.7,0,15,0c8.3,0,15,6.8,15,15c0,8.3-6.8,15-15,15C6.7,30,0,23.2,0,15z M25.7,22.8
		c3.3-4.3,3.9-11.7-1.1-16.9C19.5,0.5,11,0.4,5.8,5.5c-5.2,5.1-4.9,12.7-1.4,17.3c0-0.3,0.1-0.6,0.1-0.9c0.6-3.1,3-5.5,6.1-6.1
		c0.1,0,0.2,0,0.3,0.1c0.4,0.2,0.8,0.5,1.2,0.7c1,0.5,2,0.6,3.1,0.6c1.5,0,2.8-0.4,4-1.3c0.1,0,0.1-0.1,0.2,0c3,0.5,5.4,2.8,6.1,5.8
		C25.6,22,25.6,22.4,25.7,22.8z"/>
	<path class="st0" d="M15,15.7c-1.3,0-2.4-0.5-3.3-1.3c-1.4-1.2-2.2-2.7-2.4-4.5C9,6.9,11,4.2,13.8,3.7c3.1-0.6,6,1.2,6.8,4.3
		c0.3,1.4,0.1,2.8-0.5,4.1c-0.7,1.4-1.7,2.5-3.1,3.2C16.3,15.6,15.7,15.7,15,15.7z"/>
</g>
</svg>
